<mxfile host="app.diagrams.net" modified="2023-05-22T06:50:20.987Z" agent="Mozilla/5.0 (Macintosh; Intel Mac OS X 10_15_7) AppleWebKit/537.36 (KHTML, like Gecko) Chrome/112.0.0.0 Safari/537.36" etag="Q1KV9aCt9LNl7GEAXXbK" version="21.3.2" type="device">
  <diagram name="Page-1" id="JlSzHq7Eo1urmRr3XqGo">
    <mxGraphModel dx="933" dy="519" grid="1" gridSize="10" guides="1" tooltips="1" connect="1" arrows="1" fold="1" page="1" pageScale="1" pageWidth="850" pageHeight="1100" math="0" shadow="0">
      <root>
        <mxCell id="0" />
        <mxCell id="1" parent="0" />
        <mxCell id="2JIjCf7IxPsp1DNlf6xB-1" value="&lt;font style=&quot;font-size: 14px;&quot;&gt;AWS&lt;br&gt;&lt;/font&gt;" style="points=[[0,0],[0.25,0],[0.5,0],[0.75,0],[1,0],[1,0.25],[1,0.5],[1,0.75],[1,1],[0.75,1],[0.5,1],[0.25,1],[0,1],[0,0.75],[0,0.5],[0,0.25]];outlineConnect=0;html=1;whiteSpace=wrap;fontSize=12;fontStyle=0;container=1;pointerEvents=0;collapsible=0;recursiveResize=0;shape=mxgraph.aws4.group;grIcon=mxgraph.aws4.group_aws_cloud_alt;strokeColor=#82b366;fillColor=#d5e8d4;verticalAlign=top;align=left;spacingLeft=30;dashed=0;" vertex="1" parent="1">
          <mxGeometry x="40" y="40" width="350" height="426.5" as="geometry" />
        </mxCell>
        <mxCell id="2JIjCf7IxPsp1DNlf6xB-3" value="ACM" style="text;html=1;strokeColor=none;fillColor=none;align=center;verticalAlign=middle;whiteSpace=wrap;rounded=0;fontSize=16;fontStyle=1" vertex="1" parent="2JIjCf7IxPsp1DNlf6xB-1">
          <mxGeometry x="267" y="146" width="60" height="20" as="geometry" />
        </mxCell>
        <mxCell id="2JIjCf7IxPsp1DNlf6xB-4" value="" style="sketch=0;points=[[0,0,0],[0.25,0,0],[0.5,0,0],[0.75,0,0],[1,0,0],[0,1,0],[0.25,1,0],[0.5,1,0],[0.75,1,0],[1,1,0],[0,0.25,0],[0,0.5,0],[0,0.75,0],[1,0.25,0],[1,0.5,0],[1,0.75,0]];outlineConnect=0;fontColor=#232F3E;gradientColor=#F54749;gradientDirection=north;fillColor=#C7131F;strokeColor=#ffffff;dashed=0;verticalLabelPosition=bottom;verticalAlign=top;align=center;html=1;fontSize=12;fontStyle=0;aspect=fixed;shape=mxgraph.aws4.resourceIcon;resIcon=mxgraph.aws4.certificate_manager_3;" vertex="1" parent="2JIjCf7IxPsp1DNlf6xB-1">
          <mxGeometry x="258" y="168.25" width="78" height="78" as="geometry" />
        </mxCell>
        <mxCell id="2JIjCf7IxPsp1DNlf6xB-17" value="ECR" style="text;html=1;strokeColor=none;fillColor=none;align=center;verticalAlign=middle;whiteSpace=wrap;rounded=0;fontSize=16;fontStyle=1" vertex="1" parent="2JIjCf7IxPsp1DNlf6xB-1">
          <mxGeometry x="268" y="280.57" width="51" height="27.5" as="geometry" />
        </mxCell>
        <mxCell id="2JIjCf7IxPsp1DNlf6xB-19" value="" style="sketch=0;points=[[0,0,0],[0.25,0,0],[0.5,0,0],[0.75,0,0],[1,0,0],[0,1,0],[0.25,1,0],[0.5,1,0],[0.75,1,0],[1,1,0],[0,0.25,0],[0,0.5,0],[0,0.75,0],[1,0.25,0],[1,0.5,0],[1,0.75,0]];outlineConnect=0;fontColor=#232F3E;gradientColor=#F78E04;gradientDirection=north;fillColor=#D05C17;strokeColor=#ffffff;dashed=0;verticalLabelPosition=bottom;verticalAlign=top;align=center;html=1;fontSize=12;fontStyle=0;aspect=fixed;shape=mxgraph.aws4.resourceIcon;resIcon=mxgraph.aws4.ecr;" vertex="1" parent="2JIjCf7IxPsp1DNlf6xB-1">
          <mxGeometry x="254.5" y="308.07" width="78" height="78" as="geometry" />
        </mxCell>
        <mxCell id="2JIjCf7IxPsp1DNlf6xB-50" value="VPC" style="sketch=0;outlineConnect=0;html=1;whiteSpace=wrap;fontSize=12;fontStyle=0;shape=mxgraph.aws4.group;grIcon=mxgraph.aws4.group_vpc;strokeColor=#d79b00;fillColor=#ffe6cc;verticalAlign=top;align=left;spacingLeft=30;dashed=0;" vertex="1" parent="2JIjCf7IxPsp1DNlf6xB-1">
          <mxGeometry x="20" y="146" width="220" height="267.5" as="geometry" />
        </mxCell>
        <mxCell id="2JIjCf7IxPsp1DNlf6xB-10" value="" style="sketch=0;points=[[0,0,0],[0.25,0,0],[0.5,0,0],[0.75,0,0],[1,0,0],[0,1,0],[0.25,1,0],[0.5,1,0],[0.75,1,0],[1,1,0],[0,0.25,0],[0,0.5,0],[0,0.75,0],[1,0.25,0],[1,0.5,0],[1,0.75,0]];outlineConnect=0;fontColor=#232F3E;gradientColor=#945DF2;gradientDirection=north;fillColor=#5A30B5;strokeColor=#ffffff;dashed=0;verticalLabelPosition=bottom;verticalAlign=top;align=center;html=1;fontSize=12;fontStyle=0;aspect=fixed;shape=mxgraph.aws4.resourceIcon;resIcon=mxgraph.aws4.route_53;" vertex="1" parent="2JIjCf7IxPsp1DNlf6xB-1">
          <mxGeometry x="110" y="40.5" width="78" height="78" as="geometry" />
        </mxCell>
        <mxCell id="2JIjCf7IxPsp1DNlf6xB-11" value="Route 53" style="text;html=1;strokeColor=none;fillColor=none;align=center;verticalAlign=middle;whiteSpace=wrap;rounded=0;fontSize=16;fontStyle=1" vertex="1" parent="2JIjCf7IxPsp1DNlf6xB-1">
          <mxGeometry x="187" y="64.5" width="80" height="30" as="geometry" />
        </mxCell>
        <mxCell id="2JIjCf7IxPsp1DNlf6xB-48" style="edgeStyle=orthogonalEdgeStyle;rounded=0;orthogonalLoop=1;jettySize=auto;html=1;entryX=0.601;entryY=-0.002;entryDx=0;entryDy=0;exitX=0.5;exitY=1;exitDx=0;exitDy=0;exitPerimeter=0;entryPerimeter=0;" edge="1" parent="2JIjCf7IxPsp1DNlf6xB-1" source="2JIjCf7IxPsp1DNlf6xB-42" target="2JIjCf7IxPsp1DNlf6xB-39">
          <mxGeometry relative="1" as="geometry">
            <Array as="points">
              <mxPoint x="150" y="253" />
              <mxPoint x="150" y="253" />
            </Array>
          </mxGeometry>
        </mxCell>
        <mxCell id="2JIjCf7IxPsp1DNlf6xB-42" value="" style="outlineConnect=0;dashed=0;verticalLabelPosition=bottom;verticalAlign=top;align=center;html=1;shape=mxgraph.aws3.application_load_balancer;fillColor=#F58534;gradientColor=none;" vertex="1" parent="2JIjCf7IxPsp1DNlf6xB-1">
          <mxGeometry x="110" y="168.5" width="80" height="77.5" as="geometry" />
        </mxCell>
        <mxCell id="2JIjCf7IxPsp1DNlf6xB-44" value="ALB" style="text;html=1;strokeColor=none;fillColor=none;align=center;verticalAlign=middle;whiteSpace=wrap;rounded=0;fontSize=16;fontStyle=1" vertex="1" parent="2JIjCf7IxPsp1DNlf6xB-1">
          <mxGeometry x="66.5" y="196.13" width="43.5" height="22.25" as="geometry" />
        </mxCell>
        <mxCell id="2JIjCf7IxPsp1DNlf6xB-39" value="" style="rounded=1;whiteSpace=wrap;html=1;fillColor=#dae8fc;strokeColor=#6c8ebf;" vertex="1" parent="2JIjCf7IxPsp1DNlf6xB-1">
          <mxGeometry x="30" y="272.5" width="200" height="130" as="geometry" />
        </mxCell>
        <mxCell id="2JIjCf7IxPsp1DNlf6xB-23" value="ECS Cluster" style="text;html=1;strokeColor=none;fillColor=none;align=center;verticalAlign=middle;whiteSpace=wrap;rounded=0;fontSize=16;fontStyle=1" vertex="1" parent="2JIjCf7IxPsp1DNlf6xB-1">
          <mxGeometry x="38" y="278.07" width="108" height="30" as="geometry" />
        </mxCell>
        <mxCell id="2JIjCf7IxPsp1DNlf6xB-32" value="" style="sketch=0;points=[[0,0,0],[0.25,0,0],[0.5,0,0],[0.75,0,0],[1,0,0],[0,1,0],[0.25,1,0],[0.5,1,0],[0.75,1,0],[1,1,0],[0,0.25,0],[0,0.5,0],[0,0.75,0],[1,0.25,0],[1,0.5,0],[1,0.75,0]];outlineConnect=0;fontColor=#232F3E;gradientColor=#F78E04;gradientDirection=north;fillColor=#D05C17;strokeColor=#ffffff;dashed=0;verticalLabelPosition=bottom;verticalAlign=top;align=center;html=1;fontSize=12;fontStyle=0;aspect=fixed;shape=mxgraph.aws4.resourceIcon;resIcon=mxgraph.aws4.ecs;" vertex="1" parent="2JIjCf7IxPsp1DNlf6xB-1">
          <mxGeometry x="53" y="308.07" width="78" height="78" as="geometry" />
        </mxCell>
        <mxCell id="2JIjCf7IxPsp1DNlf6xB-35" value="Tasks" style="text;html=1;strokeColor=none;fillColor=none;align=center;verticalAlign=middle;whiteSpace=wrap;rounded=0;fontSize=16;fontStyle=1" vertex="1" parent="2JIjCf7IxPsp1DNlf6xB-1">
          <mxGeometry x="150" y="278.07" width="60" height="30" as="geometry" />
        </mxCell>
        <mxCell id="2JIjCf7IxPsp1DNlf6xB-41" value="" style="group" vertex="1" connectable="0" parent="2JIjCf7IxPsp1DNlf6xB-1">
          <mxGeometry x="150" y="307.07" width="59" height="80" as="geometry" />
        </mxCell>
        <mxCell id="2JIjCf7IxPsp1DNlf6xB-40" value="" style="rounded=1;whiteSpace=wrap;html=1;fillColor=#d5e8d4;strokeColor=#82b366;" vertex="1" parent="2JIjCf7IxPsp1DNlf6xB-41">
          <mxGeometry width="59" height="80" as="geometry" />
        </mxCell>
        <mxCell id="2JIjCf7IxPsp1DNlf6xB-33" value="" style="sketch=0;outlineConnect=0;fontColor=#232F3E;gradientColor=none;fillColor=#D45B07;strokeColor=none;dashed=0;verticalLabelPosition=bottom;verticalAlign=top;align=center;html=1;fontSize=12;fontStyle=0;aspect=fixed;pointerEvents=1;shape=mxgraph.aws4.container_1;" vertex="1" parent="2JIjCf7IxPsp1DNlf6xB-41">
          <mxGeometry x="9.271428571428572" y="7.923407065037966" width="40.457142857142856" height="26.12857142857143" as="geometry" />
        </mxCell>
        <mxCell id="2JIjCf7IxPsp1DNlf6xB-34" value="" style="sketch=0;outlineConnect=0;fontColor=#232F3E;gradientColor=none;fillColor=#D45B07;strokeColor=none;dashed=0;verticalLabelPosition=bottom;verticalAlign=top;align=center;html=1;fontSize=12;fontStyle=0;aspect=fixed;pointerEvents=1;shape=mxgraph.aws4.container_1;" vertex="1" parent="2JIjCf7IxPsp1DNlf6xB-41">
          <mxGeometry x="9.271428571428572" y="42.258171013535815" width="40.457142857142856" height="26.12857142857143" as="geometry" />
        </mxCell>
        <mxCell id="2JIjCf7IxPsp1DNlf6xB-47" style="edgeStyle=orthogonalEdgeStyle;rounded=0;orthogonalLoop=1;jettySize=auto;html=1;entryX=1;entryY=0.5;entryDx=0;entryDy=0;exitX=0;exitY=0.5;exitDx=0;exitDy=0;exitPerimeter=0;" edge="1" parent="2JIjCf7IxPsp1DNlf6xB-1" source="2JIjCf7IxPsp1DNlf6xB-19" target="2JIjCf7IxPsp1DNlf6xB-40">
          <mxGeometry relative="1" as="geometry">
            <Array as="points">
              <mxPoint x="238" y="348" />
              <mxPoint x="238" y="347" />
            </Array>
          </mxGeometry>
        </mxCell>
        <mxCell id="2JIjCf7IxPsp1DNlf6xB-46" style="edgeStyle=orthogonalEdgeStyle;rounded=0;orthogonalLoop=1;jettySize=auto;html=1;entryX=0.5;entryY=0;entryDx=0;entryDy=0;entryPerimeter=0;" edge="1" parent="2JIjCf7IxPsp1DNlf6xB-1" source="2JIjCf7IxPsp1DNlf6xB-10" target="2JIjCf7IxPsp1DNlf6xB-42">
          <mxGeometry relative="1" as="geometry">
            <Array as="points">
              <mxPoint x="150" y="169" />
            </Array>
          </mxGeometry>
        </mxCell>
        <mxCell id="2JIjCf7IxPsp1DNlf6xB-53" style="edgeStyle=orthogonalEdgeStyle;rounded=0;orthogonalLoop=1;jettySize=auto;html=1;entryX=1;entryY=0.5;entryDx=0;entryDy=0;entryPerimeter=0;" edge="1" parent="2JIjCf7IxPsp1DNlf6xB-1" source="2JIjCf7IxPsp1DNlf6xB-4" target="2JIjCf7IxPsp1DNlf6xB-42">
          <mxGeometry relative="1" as="geometry" />
        </mxCell>
        <mxCell id="2JIjCf7IxPsp1DNlf6xB-8" value="ecs-api.san99tiago.com" style="text;html=1;strokeColor=none;fillColor=none;align=center;verticalAlign=middle;whiteSpace=wrap;rounded=0;fontSize=15;fontStyle=1;fontColor=#0000FF;" vertex="1" parent="2JIjCf7IxPsp1DNlf6xB-1">
          <mxGeometry x="81" y="3.5" width="180" height="37" as="geometry" />
        </mxCell>
        <mxCell id="2JIjCf7IxPsp1DNlf6xB-13" value="" style="fontColor=#0066CC;verticalAlign=top;verticalLabelPosition=bottom;labelPosition=center;align=center;html=1;outlineConnect=0;fillColor=#CCCCCC;strokeColor=#6881B3;gradientColor=none;gradientDirection=north;strokeWidth=2;shape=mxgraph.networks.terminal;" vertex="1" parent="1">
          <mxGeometry x="400" y="248.5" width="80" height="65" as="geometry" />
        </mxCell>
        <mxCell id="2JIjCf7IxPsp1DNlf6xB-14" value="" style="dashed=0;outlineConnect=0;html=1;align=center;labelPosition=center;verticalLabelPosition=bottom;verticalAlign=top;shape=mxgraph.weblogos.github" vertex="1" parent="1">
          <mxGeometry x="485" y="242.5" width="75" height="75" as="geometry" />
        </mxCell>
        <mxCell id="2JIjCf7IxPsp1DNlf6xB-25" style="edgeStyle=orthogonalEdgeStyle;rounded=0;orthogonalLoop=1;jettySize=auto;html=1;entryX=1;entryY=0.5;entryDx=0;entryDy=0;entryPerimeter=0;" edge="1" parent="1" source="2JIjCf7IxPsp1DNlf6xB-15" target="2JIjCf7IxPsp1DNlf6xB-19">
          <mxGeometry relative="1" as="geometry">
            <Array as="points">
              <mxPoint x="480" y="387.5" />
            </Array>
          </mxGeometry>
        </mxCell>
        <mxCell id="2JIjCf7IxPsp1DNlf6xB-15" value="Repository&lt;br&gt;aws-cdk-ecs-api" style="text;html=1;strokeColor=none;fillColor=none;align=center;verticalAlign=middle;whiteSpace=wrap;rounded=0;fontSize=16;fontStyle=1" vertex="1" parent="1">
          <mxGeometry x="416.87" y="326.5" width="133.75" height="42" as="geometry" />
        </mxCell>
        <mxCell id="2JIjCf7IxPsp1DNlf6xB-20" value="" style="sketch=0;aspect=fixed;html=1;points=[];align=center;image;fontSize=12;image=img/lib/mscae/Docker.svg;" vertex="1" parent="1">
          <mxGeometry x="470" y="160.19" width="84.61" height="69.37" as="geometry" />
        </mxCell>
        <mxCell id="2JIjCf7IxPsp1DNlf6xB-28" value="" style="shape=image;verticalLabelPosition=bottom;labelBackgroundColor=default;verticalAlign=top;aspect=fixed;imageAspect=0;image=https://fastapi.tiangolo.com/img/logo-margin/logo-teal.png;" vertex="1" parent="1">
          <mxGeometry x="415.47" y="116.5" width="135.15" height="48.75" as="geometry" />
        </mxCell>
        <mxCell id="2JIjCf7IxPsp1DNlf6xB-21" value="" style="shape=image;imageAspect=0;aspect=fixed;verticalLabelPosition=bottom;verticalAlign=top;image=data:image/png,iVBORw0KGgoAAAANSUhEUgAAAggAAAIICAYAAAAL/BZjAAAAAXNSR0IArs4c6QAAIABJREFUeF7snQmcXFWV/8951Us2EpAgQQEB2cye7g6I4wIBwQXZRjIqJsA4ymZQkOzOTM/nP7K4kASEIDriyIiYlSSKgiIgm0KqE5aELYGwrwFC9u6ud/+fV1u/qrfcc+57VV1V7/TnM5/B1Dl3+Z1zz/2++169QpA/UUAUqDkFDuq8acCwLYP3VqmmvayUNRRBDUPEoQCZYWhZeygbhiDiEFAwRIEajIBDEGCgAhgAAAMQ1QAA5/+wFUA1A0CzAmzK/Tc2gVIIAE2gABAx99/On7IzCsAGBAUKMoCoAKAXQPUAYDco1QMI3QDYA7baCQA7AXEHYu6/baW2A+D7iLBVKXubAtyKAFvBVu+h83/Y9F63teM9sO13H/vx1O01J7wMSBQQBYoKOIVB/kQBUaAKChw67fahg4fsGmHZqRFNKXtExoYPIsK+oHAEII5AhBEK1D6gYB8EGGQ+JGdP1/z5mhD8fJsN8NM0p0DtQFBvKBveRIQ3bFCvI+DLCvF1O6PetCzrDZWB13a/mHlt/eLJ3bopyeeigCgQrwICCPHqKa0lWIFRlyz6QHNT84FWU2p/hMwBAHiIpeCjgHiIQvVR5yq/IE/g3pn9IOaNujwmNQAHuSHR5qlA2QDwGgJuVDY8B6iesZW9ybLxJRtSL615MfMyLJ6cSXDqydRFgYooIIBQEVml0YZVoPPupvHbNx+cSqUOVgAHWYijAa0JoNQYBBwKCPk1Fbz5CRzQ4cCbR8rDFcq5BaJgPQA+oUA9aqF6yrZ7N+3a0fTc+usnb2vYXJSJiQIVVkAAocICS/P1q8CEaYv2sYa0HIIIR4ANx6BldSiA8Vi4Xx84tYTCAe1AgHxyQIEDXXYpUBsA8AFQmfttG5/ZlWl69sn5//x6hEHoupTPRYGGUUAAoWFCKROJosD47y7fMzUodYiy1cfQwhMQ1EmIuB/xFNzVtcBBeBzIFFHWjPfkgBZvb3+2gjcR4C+A6s5MRq1/f+uWZ5678bwttPbEShRIjgICCMmJtczUpcDoOSv2bc7AESkr9Umw7H8GBRNyT/O7NhTWXhZu3NC3Fcg6kQ0rBgdBi0DZ9hoF1lIb1T22an72sR+f8aYsGFEg6QoIICQ9AxIyf+eEoGlw0+Gg7C8A4FmIeKjvEXbhH1l7mcCBPo1YgpaeyBi5Mp1KzJ1veKp1YONNkFF3b8n0bthw7dff189RLESBxlJAAKGx4imzKSqgcOz3Vx2UymQ+mcLUeQD4CSw+QOgnk5wcsG8NkPdgsmHVTw6yHZbBgUcHpZxvSNyhQF3fm0mtfXTe5FdkoYkCSVBAACEJUU7KHDvvbhq3+91DWqDpK8qCSxBwT9rUBQ4EDjykECiJArUJlfXfGdXzlzU/+dqLANmXScmfKNBwCgggNFxIEzahzk5rbG/bR1oV/qtS9mxEK8VTQOBA4IAOB+VaKVBvgQ2ddkrdtuaHX32Vl3tiLQrUtgICCLUdHxldgAITZi/aJwUDzkDE+YDZ1wsb/DUYHIQ/CRlNn4I3+VqZbFg2rvi+rRA6Yd1tBZJapXNUSr2gMup8bGl6KH3VZPlWBElDMaplBQQQajk6MrYSBQ6ddk3rnoM/MhJS1q8RYHQ0eQQO5OTA/OQg9C2Qzo9Z2LC0t6f3u4/tveFV6Ox03gQpf6JA3SkggFB3IUvegEdeuGjIwL0GnY9K/TD8QUOqNvHDQej1cvbDCFfUumnVzMmB6Rzz+hi5M50qcHJQEp6y4Siltmd67Mnvvd/9102/OneXLpTyuShQSwoIINRSNGQsJQocOXvZ3kOw6X8Q8dT4pBE4qMzJAXOjLt9VjdyZTlWGg3KdbaUuf33r+z949cbzdsSXz9KSKFA5BQQQKqettGyowMjpfxgxqNVeiQomGjYR4CZwIHBQodMcLav0GSgFS3qw5xz5uet4V7e0Fr8CAgjxayotGipweOeq4Xv0wp/QhrZ4biW4B1J+9ssZZHD1Dz/d1+4aIYMg+PqaEPx8e/XxIzdFNizruX4fSCw/AOGCl3LexYTqj6+9v/VMOVHgrEWxraYCAgjVVFv68lXgoM6bBgzv2XsFIJyACq34ZRI44G5g9EcmBA7Y2pZya8YGe0nX1m1T4MbzeuLPfWlRFDBXQADBXDvxjEGB9rkrfoJofRsBWuibEqdjgQP2Bkbe88mGcnKgSVmlYLdS9pVdV5/VyclusRUFKqmAAEIl1ZW2AxWY+P3fnwCgfgcAH8game41oRoLHAgcREmukKTU5qvWwDc0Cux3IaO+kp739TulfIgC/a2AAEJ/RyBh/Y88c1HLoCMG3IkKPwkIubcemtVS3TVZ3+fs9uWZAzZYkPI4uc8ckOSB3OsSFCgbbHw4Y3d/fu38c9+j+YqVKBC/AgII8WsqLQYoMPE/bv8Xlen9GSIOK5qwN2+KvKbfVginFXkgMQrNCRyEZ67rXUr5RFMA25VS3++6+uvzKVkvNqJA3AoIIMStqLTnq0DH3N/fhqBOLp4aRNlrQjUWOGBf/ZMhjWxYNoQkwIGpNo5UXjgoCJj/tsPDmUzP5+Q0QYprtRUQQKi24gnrb+TMlQcOasK7EeGQkqlHqaeBGgocCBxEIU/TZw6iJHMwHLhjqQC22Hbm/DXzpt6asBIi0+1HBQQQ+lH8Ru+6bebKyVYT/hIRBgsclEebsKnIew5oS6REJ4Kuvq3WLhy4hturFPxf+uqzzqUJI1aiQDQFBBCi6SfeAQpMnLvyCkC8DACaBA7KrgUpWSNwQFGp7AHXhoaDvB4KlIL0tqbdxz39w29spYkkVqKAmQICCGa6iVeIAu1zVv4GLfwKApS+9Mi0foeqXU+3FYgCCBzQ1ldyTg6KcFAURsEbdiZzYteCsx+jiSVWogBfAQEEvmbiEaLAxLkrVynAL3pelUzcG3niChyE6+UjOjkOZMOyIcgDieExoT1z4G3DGw+l1A47A1PXLJiylLduxFoUoCkggEDTSawICkycu+pPCuBEgYNysYibrZwcELKs/L0ZRG09LdfFMwfekwMvjnWDDd9Jz/v6DTTxxEoUoCsggEDXSixDFOiYs2IFoPUlgQOBA95CYW7wSb6tECSsgoyy1az0/Ck/5mkv1qJAuAICCJIhkRXomLvyZwD4TYEDgQNeMiUFDpx55ufKmjLDWEEGbZz1yPyzBBJ4SSjWIQoIIEh6RFKgfc6q71gWeN/0xqht9AHIMwfhWskzB2x9Cg6h+RolmeN75kC3TpxXNKsMXNA1f8qNOlv5XBSgKCCAQFFJbHwVaJ/9h6OtlP13z4dR6mmg1gIH7M2PHAeyYdkQ5IFEfUwqfHLgHkA2HMpWSp3WNW/qKilbokBUBQQQoiqYUP8xs36zV2tq6GuI0FoigeleE6qjwIF+I/Lu3bTUNA2YwIE+JtWFg8JtDOf1zL3dmTGPXnfOOloOiJUo4K+AAIJkBl+BzrubOnq3/Q0BjhE4KLuEo6gp31agqFTHL0GqwjMHnrQrTSoF0J2xe/eV32+gpZpYCSBIDsSkQNucleekLLyp2JzpRah2PHJyoL9KlZODYI3646uMVYSD4vQC5qngudXbdxwJN57Xo11qYiAK+CggJwiSFiwFRs9Zse9AtF4DhFzuCBzQRZCTA1qu1e1XGWsIDvJKZ2y1cM38qRfRk5QWIrFKhgICCMmIc0yzVDjx+79fCQAnCxwUJCUSksABLQcFDvQ66U4OylroteG4tfOn3KNvWCxEgVIFBBAkI8gKjPv3FRNalNVVm3AQvlEHfpr9gLjJe5Qi+gkc0HJM4ECvExMO8g32vrNtx/Dnbjxvi74DsRAF+hQQQJBsoClw5qLUxCMGpgFgnPF+qu3J9JkDGhw4XwEDBbsB0EaElFLQiqAM14DAQXg4ifr4HsQwfYsDSfgzByEBsW24rWv+188AQFNxtatXDBpPAcPi2HhCyIzCFZj47ysngsKH6wUOlILdCLDBBrUWbbizW3X/47FB65+Fzs7im2sOOuemAcNG7PExS6U+aaE6CQA/hogHen6iWk4OmMuDuQfJyYFe30gnXblTMrsnc0zXted631ui710sEqqAAEJCA8+cNk6c+/t7ANSnmX5E8/hODpQDBRn7513PPTofFnd2EwdQNJswe9E+lmruBMTTEWA/rz9x85PbCjTpBQ70OsUABzlEgHe39Azfb8O1X9it71QsRAHIP4kuSogCIQqMn77qsOYWeKYyIkWHA+fFMACwsSdjn/XoD09/OK5xTpix9BuWlfpvRBiRa1PgIFxboj6FRgQO9KkaExwUJVfWOel5X/9ffcdiIQoIIEgOEBRon7vyPyzA/yKYMk2iwwEAvG9n1AXpq067hdk5zbyz02rbOfYqtKxpCKr0rZF+LcjJAU1XgQO9TjHDQb7DzDvbdu4tDyzq5RcLAQTJAZ0CnXc3Teze+j4gDtSZ8j6PBgfZUwNU61ZfftoYXr9m1qOnL/9oa0r9HRGH+7YQePHMvKouNu7jR26KbFg2FXl9sv6EJK8tS2KWseuwysAvLH8KhGBnLl4z/9xrzVaCeCVJAXkGIUnRNpjruFkrJrSk8l9tNPD3d4kIBwA2grr1kctPOyu2IREach5q3HvEMAcSxpWY1wwcRNxQjNyZTnJyoM+0ypwcuNHB3tbUs+fTP/zGVv1gxCLJCgggJDn6hLm3z1k120K4nGBKNIkOBwDqJ6svP20GscOYzTqtjllj7ga0cg9sChzQ9RU40GtVYTgo5qyyv7Z6/jm/1Q9ILJKsgABCkqNPmPvEuaueAIBRBFOCSUQ4yN5WyPxs9eVnXEDorIImnVb77HGrUcEE7QkJaxSmtxWYV/Hlxx9G7kynuoWD4rdiyc+o5uRl6lN0MfBznw3o8q1wh8SGzekFz30QoO9rvzpX+Tx5CgggJC/m5Bk7X/lrsga+SXYINYwBDkDds/qK0ybFM55orRw67ZrWYYP2fxc9z2aYFvgGhQPPtGLUpxDC0CZN+3Mab0w4KMpmw8fTC6b+I9pKEO9GVkAAoZGjG3Fu7bP/cLRl2TG8WMUUDvquxJSCF1dfcepBZpdmEYUIcHcAKqWaXQBluhk1KBx4LqRj1IcEB4ZX8sUTgMLlNid/DOcY6dYCsc8yM1vBzV3zp07lzE5sk6WAAEKy4s2abdusFWelUtb/sZw8xjHAASi7u9se99iPz3Bud9TUX9uspedYYN1kdKRc3IjKpkSq9ySjAK2S8G0FgYOS4PsyqLLf3b7rA/KVx5oqKTU1GAGEmgpHbQ1m4uzf/wgsdZn5qKLDgdO3DfZt6ctPP918HBX0PHNRquOQ1Fazr4HKyUF4ZEIgSMtHWoOArqt4W6HIMKZjJfr5muX/0bZOXL1gyp8ruEKk6TpWQAChjoNX6aG3z131JwvgJLN+4oEDUGrn+5nN+9byV7LGXbJkVHOrxTzdEDioDBwQN03fzhMGBw58Z+CXXdec/Q2zNS5eja6AAEKjRzjC/CbOXeW8XvkwfhMxwYHzwIFSi1dfcdpk/hiq6dFptc8cvRPRaqH12qBwIA8k0sJfCycH+ZEqUNvTwzYNdf+IGX0SYtnoCgggNHqEI8yvY+6q9xFgD14TccIBqJ1q9+Hrrpy8gTeG6ltPmLXkn1NgLdH3LHAgJwdFQtCni8eCcEISaOL/QabXGr/m2imPGgxGXBpcAQGEBg+w8fQ6O62O7vZeRM4PesUHB9kSquCx1VecWvrWQuMJVdjxzEWp9kOaesL1EjgQOKgtOHBGk1H21DXzz725witEmq9DBQQQ6jBo1RjyyDMXtQw+fCDjZ2HjhYM8IMxffcWpl1RjvnH00T5z6duIuLd/WwIHAge1BwfZEdn46/SCqWfHsQakjcZSQAChseIZ22wO6rx7wD4923bSGowfDpx+7UzmU+mrzrifNob+t5pw2bKZqSa40jsSgQOBg9qEgzyIv5Kef/b+/b+CZAS1poAAQq1FpEbGc8wliwb2Dhq4Qz+cysCBAti1+tndQ2Dx5Ix+DLVhMeaC3+zVMnTg5tLbDAIHAge1Cwf52Kid7/cMX/c///ZObawkGUWtKCCAUCuRqLFx0AChYnDgvMn+2fTlpx5eY7Joh9Mxc1kvIKRyhgIHAgf9AQeEBxnLAmNnVEfXNeektQkuBolSQAAhUeGmT1YPCJWDg3xJvT99+amfoo+4NizbZy3bjQAtyYAD/kbUFyXTlyBF6bPB3nMQ9gIk5nLozcBpa685ewXTTcwbXAEBhAYPsOn0wgGhsnCQB4Q/pC8/9WTT8feXX/vMZbsQVaunf9K+RjIKmFoVXp8s7zmgp1VWK9N4EvxihANnpLYN07oWnP1T+gTFMgkKCCAkIcoGcwwGhMrDQa60quXpy087w2Do/erSMWup82DngJJBEOq9+WaS34hIfZRLw3AqMWX4cUgptNkofVbx5KA4TNPxEvxihoPsalPq6vT8c7/Xr4tHOq85BQQQai4ktTEgf0AwhYPwouf3qQJYkb781NNqQw36KDyAQKj3Age6i22SiAFBqjYcRBkrwbcCcJA9QVD4u675Z3+FnulimQQFBBCSEGWDOXoBoXpwkL0mVvaf01ecfqLB0PvVpX3W0l0IkLvFQKj3RKOAOVX7tgJpQsFjDYpMw5wcVEifgm4VgoPceoN70vPPOa5fF490XnMKCCDUXEhqY0ClgFBdOHA2VqVUOn3laR21oQZ9FO0zl3QjYrPAgVuzkI2zYnDgNJxvnLVvs4xzk8y6GPgVJSL4VhAO8oDwWHr+OfXx1lL6chTLiAoIIEQUsFHd+wCh+nCQvScK6rX0Fad/qN70bZ+1JIMKLf24CZtCYCNychCur8CBXp9SC2XD8+kF5xyiz1uxSJICAghJijZjrjlAGND3oiTWfsZ/5qD8SkwpUFt7dnzwmZ987W3GsPvVtP2yJUdjCv+uHwRLzLLmBA70m5+cHARr5JN72RM7eC294Jy6A3L9WhOLKAoIIERRr4F9SwCBtZ9Fh4OCrBkbzl5z1Wm/rheZ22YuWWIB/rN+AzOdkcCBXluBAy4cOPZKwVvpBed80DQzxa8xFRBAaMy4Rp5VERD6CQ5yRUutSF95er18kwHbZy7pRQi7vcASU04OWFkstxX08ORNqcK/KAWb0wvOGc6SXIwbXgEBhIYPsdkEs4Aw0HWLQdtMfCcHxaIF6q30hp796uH3GMZ/d/meqRb7neCfexY4CH+OL6I+8kBiyAr1v63gdhBA0Ba4RBoIICQy7PpJ8wAhfjjogwQ8J33Fqf+rH3H/WrTPWHILIn7VfxQRNz8jd4ZTiSnDzzPZEN/QZqP2KbcVTG4rCCD0b82oh94FEOohSv0wRjogVA4O8rcZHk1fefr4fpCA3OVB59w0YPi+QwN+Gjvi5mfkznASOKDFOasTQ1cOPPXRsM9YYu4zoDk5QaClQdKsBBCSFnHifGmAUFk4KAy1F3q/uPaKL99OHHrVzdovW3olpmCmt+OIxd3IneEkcEDLlbqDgyAKCDlnkGcQaLmQMCsBhIQFnDpdPSBUBw5ypwj4bHrj7o/V4rMIh3/vluFDm1rfEjjgXvwyQMb3alxuK/ivZT4c5NaYPKRIrY1JshNASFK0GXMNB4TqwUHx9FWpn6SvPP0yxhQqb9rZabXvGN2FiGVvoIu4+Rm5M5zk5ICWGwk4OehbXwIItKRIlpUAQrLiTZ5tMCBUHw5yb1aEXrB72tJXTX6cPIkKG7bNWnSOpVI3lXbD2Kj9royN3BlOAge0rEgQHOR+zdEBhHPla4607EiMlQBCYkLNm6g/IPQPHLhG/s7WN6yDnv7lqVt5s4nfetylSyY0N2OXwEGZtqEpwgCZkmYLfnJbIc7bCrm2cpoKIMRfIxqhRQGERohiBebgBYTg4q7fE6JuDH0TVACvbdnWevCGa7+wuwLTJjXZdsmiQ62W1LMCB9WCA1f+sFKJZezaLw38ilIQfH1NCH6+2Wn2zIEbDgQQSMs+kUYCCIkMu37SpYBQG3BQGLUCeHPLtpcO3HDtxVWHhLHfWXFEy4DepwQOBA68q4iwydcgHAgg6OthUi0EEJIaec28+wChtuDANewd20Ad+NQVZ2yuVgjbpy8+ES3rDoEDgYOahAMCn5SfHBShW55BqFYZqat+BBDqKlzVG2wOEFr7fs3Rp+vAehTpAS9ClSveilY22HBJ+odnXFNZZRS2zVh2CwL8S+mrlAljDRxYFX54KXtp6B6A6XhD/LRNag0CFLL7/p3VBMu4rA9DX+oLlCp9ekAevtdQnkGobAWp19YFEOo1chUetw4Q+hsOXFc+CsDest3CQytxmtB22aJJVsr6AwAOqKuTA4ED+gqpNNB6YlHMXvoYSyx9Vl8EOMgOT04QDGPR2G4CCI0dX+PZhQFCrcCB+7jUoQRQ6vne7sxnHp03+RXjiecd2773u5MwlboZAId7f4CJXI39z12M3JlOcnJASwGBg6xOAgi0dEmalQBC0iJOnG8QINQiHJQcoitQCOpdW6lbem3r/z324zPeJE4Zxl526+iWVPPlAOozSuEe/r/MyNyoy6/8jNyZTgIHtJALHBR1EkCgpUzSrAQQkhZx4nz9AKHW4aB8asqBBYStSsE2BepVRHhCZfBVRLVLoT3EsqwDlVJjEfADSsFQUDAw+OeaA8+JiYpW4ZkDT4CYYNG3XQTPKbRJ0/6c7uSZg/BEiv+2QhlYy4uSiCs5SWYCCEmKNmOu5YBQb3DA2uFI+xrJKKBbgYPw1BM46E84kFsMjMKYMFMBhIQFnDpdNyAIHAgchD+oH0WfBoOD8MVCXX4uu8qeHBQ6klsMBqFJgIsAQgKCbDLFAiAIHETZ/Kp9chBxrEGJIrcVyr8v6q9UzcABPw8EEEyqZOP7CCA0foyNZugAQk/QexAq/XCXb33jF72+iZtehUXs08id4RTLw4jZA2bWHZlQXcnZJicHlbmtwMgf9zmFfM2RnLlJMhRASFK0GXPd/5JFA0f4AYLAAUFFOTlI1DMHdXxyILcYCMs5wSYCCAkOftjUfQFB4ICQLQIHAgeaU5lQgfrntEvZuDl9jfzcM2GBJ8pEACFR4aZP1gMIAgcE8QQOBA7MjvhzuvUPHDjfMFUggEBY4IkzEUBIXMhpEy4BBIEDgmgCBwIH9QkHOTQRQCAs8sSZCCAkLuS0CRcBQeCAIJjAQc3AQXGPNt2sCX6N8hBtyXOiAgiEhZ44EwGExIWcNuEsIAxwfs2RUDB9myT4NUqhJUzVKxHDSb6tQEvaSDBLfG6gUXLWBQdygkBLryRaCSAkMeqEOecAoSX0556DmyFsfo1SaAlTFTigvUagTycDUQUOCKs6D0FlcCCAQJQugWYCCAkMOmXK5oBAKO4CB5QQlB3eEHQNbLXB33MgcEDLJ+c00AcOBBCI8iXQTAAhgUGnTNkMEAibmMABRX6BA5pKeZ0IeWcCTwWfRsnZQDhwJirPIFBTLkl2AghJijZjrnxAIBTpui+0+QkQpprM2wqOMC5xWDqxjHPyyskBcUWHnRwUmhBAIIqZKDMBhESFmz5ZHiAQirvAAU38un0gUeBAH2CfRUBYOuYPCucpKvTkQABBH7fkWgggJDf2oTOnAwKhwgkc0LJM4IChEyHv5LZCyDMH5eLICQIt+ZJlJYCQrHiTZ0sDBEKRFjigad4IcEBIh1Ix2A5yW4GUTXldSScHcoJAkjShRgIICQ28btp6QCAU90aAA8I0/bVkOAoc6NIx97k8c0DQKf/SroD0C85KOUEgiJs4EwGExIWcNuFwQCBsfgIHNKEFDhg6EfIu0bcVTOEgK9rm9DX/OpwWDLFKigICCEmJNHOewYBAKNICBzS1BQ4YOhHyTuAg8HnGcPWcT50TBAEEWkImx0oAITmxZs3UHxAIRVrggKazwAFDJ0Le1QwcsM/2XSM3nWeUk4NCnwIItIRMlpUAQrLiTZ6tFxAIxUvggKavwAFDJ0LeCRxEODkoiCeAQEvKZFkJICQr3uTZlgICoUgLHNC0FThg6ETIO4GDGODAEVEAgZaYybISQEhWvMmz7QMEQpEWOKDpKnDA0ImQd76tEf1izdnauq2gV8DPQgCBlpzJshJASFa8ybPNAUKz/tccYy20zvB8GtRXPO7PBZbe9yW17ycdw1HggJZ7WZ0Yupa0SvSLNWcbAQ7kBIGWnMmzEkBIXsxJMyYBQqyFVuBAH5iQDTB0byRunJ4BOH55X3YTbIeI7zkg9hdrzprCbEQIcoXFHTK9AmEWcoKgX3/JsxBASF7MSTPWAkKshVbgQB8UgYNgjfRbY9Y31pxtJDiQEwT9+kumhQBCMuOunXUoIMRaaAUOtMEIO3KXkwO9fAIHBI3kBIEgUuJMBBASF3LahAMBoe7hIL9bEC86S9ViOsXy3IHpyUGUY2zXS/xZU2YZ90mbdTP0pfrFmrf9dHrA+m2FgrxUXQUQaJUxWVYCCMmKN3m2voAQa5Htj5MDgQN9AggchGtkCgfUjdqvd8X4VUa3P6dPAQT92kiehQBC8mJOmrEHEAQOSLpljeTkgKZVYk4OOBt1uXTVgAMnZ3Fz+lp51TItcZNjJYCQnFizZzr2sjsGs51q2uGNmh5drQyuSaXmWABzaOMx3PwEDgjyVgsOnKEIIBACkjgTAYTEhVwmLAqEK9B26W/+00Lo1OskcMC+HaEXNW9RTTgQQCCHJWGGAggJC7hMVxTQKUADhBqFg8BhGY636i/uyt+jqugDiX0M4sqFzelrvyE/96xbHAn7XAAhYQGX6YoCOgX0gGC42Vb6toLAgS60uc89Ojn/4NxiEECgCZgcKwGE5MRaZioKkBQIBwSBg7q+reALB4VbDAIIpAWSICMBhAQFW6YqClAUCAYEgYPGhAMBBMq6SKKNAEISoy5zFgVCFPAHBIGDxoUDAQQpCP4KCCBIZogCokCJAl5AqCc4MByr/8154gsg262XAAAgAElEQVQeI/ZZ6QcSA28ruMMuzyBIGfAqIIAgWSEKiAIhgGC4+fXLA4mGY008HMgJgpQAOUGQHBAFRAGCAn0nCIYbrsABQeUqvOeAdHJQGKqcIBCCljgTOUFIXMhlwqJAuAI5QFCEFyWVtVPckAzBgvLDS43yyu+auK0gtxikFoQrIIAgGSIKiAJltxhu/k8LkQcIkU4NnO4JUCFwQMtU1smBnCDQRE2mlQBCMuMusxYFAhVou5QJCAIHxGyqtdsKcoJADFxizQQQEht6mbgo4K8ACxAEDohpVMtw4ExBnkEgBjJRZgIIiQq3TFYU0CtABgSBA72YWYtqwwHhdo1n5AIIxGAmykwAIVHhlsmKAnoFSIAgcKAXsm7gINoJglp/0n7QZG0gChJg5kCUCdi4m8v7U5qxoBtA7QaFOwDU24DwJmTUi4BqI6D1Iqje52B7agN2/GVLtHnVt7cAQn3HT0YvCsSugBYQBA6ImtfDyUFxKpvT1/6b0a85qqc++yGwml4hiuJjpgAUZVcP6sHla9xMmWMuxxUAPg3Kvgss616A3sfwyLufNp9n/XkKIESI2cgzF7W0fLh50G6wB6as7qamlgEpC6wmO9MjukbQtdR1d2wthTZUpW4qM5nuWJtNNTV/GxEu9m1U4ICodT3BgRNU5xZDfwBCDcJBlg0CYcQBoZvBVrcDvPYPHLU+3sVHzK5qmclGFqD0h761atCID9gfAlT7ocIRgHAEKuswhfbBiHggKPVBRByYcw/G1uA8C/fTJwABlev+a2FO8dAr4W/BcCwxZfiVdKzxC/04Sp+MY1XOeP1EFTggJGM+HlV9z4Fp/rhrUH8AQr3BQXn41TZQ6npQeCuO+ssaQnLUnYkAAgCMvezXg5tg2EetVjxMKZhkIXwGbBgJCAR9BA7Cs960eAkc6HUVONBrVGZBSkeSkU/X+ZwNcA9vldFnLEBbfoFSbUCodzjwXOA5z2DMgm7rTzjuzu11RwIBAyZsgI0y1b55HNR504Dh3fscqqD344jW2QDwCQSwNIcB/gUhQB45OYhyQiJwoN/4BA70GgkcBGtUXqGqDAgq4IiFtN24xs7gqtKmfRxZbQUad0PGngkpvBk/dtdm0nRq2CgxgHBo5+1Dh/b0jrQUfhMAzkKE1lxcTJMtCScHRpdC+XRnrTbXEhE40G98Agf0jY+TjhFz1mi5MPqsyMlBQckqAkLjwoFrO3EecLRnwo7UjfX8TYiGBoRDp93eOmzP7sPRtmajgsmAmAqkSMY6TcYzB0bVjlONg49ojYiaEcBYCq2mv9CPGWMt0cLxEzgQODDNn7BTvSoBQiLgoHzRqq/BjveWYke6x6i09aNTQwLC2MuWfbC5ufkriHA5Igz211dODmqy0BotBkbBFDigKZzViaGrp1WCr68Jwc93Bv0ItEZdM+YZS85q4qlwc/qnFf4WQ/LgwJ2p74KljoUj7nocMdLCoq3fmKwaChDGzli6f0tzs/NU6ckY+oChwIHAAaNAe67iQ1afnBzQwELggFbCqwIHzlAqDAiR4MAFN6bL1m9PZrUVYkxqJ2+E9m9gc/cF+MkHttISoH+tGgIQRl962wEDBuLdCNZH9XIKHAgckFa0/y2QsARLPBwQdW1gONAroLcopljV4KDCgCBwUF41MqDsf4KRdz9c66cJdQ0Io+fcsu8Aa8jDqPBAPRiUHbEx1qk8c6BTlyWmqzF5IDFcWUfXvLZsidkO+a4M/LKTIPpVGg6IwyCP1+/WiSss7o/1Xest+gcOKggIAgchS9y+Dj6mvot4T6+uwvbX53UJCCM7Fw0Z1DPgjwj4SbpwcnIgJweMAi23FehLS+CAoAAj96p6clAIcwVuMQgc6NeQUq9DS89YPOy+t/TG1beoM0BQ2DFrxRxMpf6bJ5XAgcABo0DXLRwYzjHrZuhL9ZOTA1rJigUONLH0/ThOQIj6EiRXPpqmZa08c6CLem5+zlcij8FRd/9DZ17tz+sGEI6ctfygIZb1DKLVzBOpinBQzGvTrCb4xVpoAzYGwjDMN5R8n6Q+yiPNdKp0sdUOR2sQkMqul8iwmmAZ9/VdaUAIHJbheI2Lv2l/hRruH67wVhl9xpKvGtgLHE6MgBDXyYExtwZMkhwKE8By5waxo9J4Oz8MdQGOuutnvP2tstZ1AAgK2+es/BWi9fXi2w7JmggchEvlk8ik3CYZBXRt+twBs89Yim1In9rhaA0EDsjrWFN8SVKTjIJztu5+W8FnKqESxAQIAge0rPaNhVKg7Otw9D3TaI1U3qqmAWH8rOUHNadSXQC4F18KgQOBA+NLkPAjd+1eozUQOOAvaP+YkKQmGSUYDhx9HED4ZsSfe7ajHSwav9W2ELqoJwempy+a/lkHobZzkrACR/31dKMlErNTzQJC+6wV52PKWoAALfw5VxEOil2ZFiGCnz9t8mUpesjJARueyDWAEE/fzuW2AjsmJKlJRgmHA2f6UQHBeoX6OIq/2KY1u5HgwJ2r6i4cdfcJEYp8LK61BwhnLkpNPHzgbUrBF8NfdhQ0f9NECy4kgZ9kP4hYgHRhFDjQKZT73KOTaVxC/EKbNO3PGbzAgcBBlPyJI2cjAgJar9AWqp+Vac0OgQO2nKYaMvYAdv1Qf8NRd3/GXNfonjUFCM4rkltamx9CgEPMpmaaaAIH7AJNDlAVnjkQOCBHIwdS7OqZb5/gF07T9HEWLfvptKvhnzko17W/AMG0ZtcKHBDXExsOigvgzzjqrycaLJxYXGoGEMbNWjGhJWX9BQA+YDYz00QTOBA40Cxy88WtSWU5OWDnHoFRzAEonweJgwNn3v0BCKY1OzFwkD8dVUtx9N1fNtsXo3nVBCB0zF71BbDgdwgwxGw6pokmcMAu0OQAVfvkgLRzBIze9HgxSp9JgIMo+sjJgfHaNALafgQEozQxzQ+3qqbrPgRQyoNmFAtPI04rN+Kou88nl9+YDPsdECbMXj4lhU0/R4RWszkJHLALCWlBkoyCN1wjd4ZTiSnDzzNi0yIRpU+Bg5rM2USeHBQiUW1AyK8fo2WUJDjI3xFE50El9X0cdfcVZvukmVe/AkLH7JXnAeK1iMB8+ZEPwbESTU4O2AWanF9ychAulcABO/dIa5tkFAy0iYaDat9iEDggl1PHsC+1uwHts3DUPUtY/hGM+w0Q2mav+qaFcJ3AQT56vvUtYtFjHXcxjs0CE07gQOCgDnM28XBQTUCIAgelu2V2rbHTzfTEkFEfY7mtELAvoNoCvd1H47gHno6w75Nd+wUQ2mevOBvRcm4ryMlBYJKzM98VdNMjONM+oyx6Rp9yW4G8sPvn2wqMWFJu9ZCaIxnJyYE2c6pxiyFKnRA46KMhtQF2bR2JHekebVgjGlQdEDrmrjwVAW8FgAFmY3cVBFZtkNsK7KNdUoBMTw2Y+C9wQIpG31UVa3GEwyXpJMq0v4A8IDVHMhI4IGVOpQEhZjhglo/QowZSGhGMKnly4D0qWYmj7z6VFNoIRlUFhHFzVx3VotRfAHEPszELHLA3eUJeG5zT9Z1/kdr3GzXDUeCAtlyKOjG0LWmZ4OdrQvALnEG1T7vyO4vcViiLSCUBwbRuF4ZomiMh/oSP+gQi5Hd14cC5t6IA1Xdw1L3X0oqDmVXVAGH0pbcdMGBg6mEEGMEfapn6hHhRghvYTPYDVidlUyL4xlpoA/ojDMN8nnJyoM/jKj6QWHc5KycH+vwJWcBxbkjZgVQKEAQO9HF2WXjiGhrobaB2j8cxD25k9cEwrgogjDxzUcvAwwassRBHMsbWd5XqdiJteno8FDiIAkECB/o8FjgI18j0qpBVALzgLicHAWGpBCAIHOjrhDEcFPbHJ3H0PQb7Km1kVQGEiXNXrgLAk2lDCqEBVm0INhY4EDjIZlnsV2GF3BU4EDhgFSv6CWRFcjbb6Ob0T88z/zXHkt9iiHLiG3Jxx5LU9PRFf3FZDFacseCdHJTmi7J/hGPuncHfX/UeFQeE9jmrZiPAD/g/vBQlyQQO2AVanyu5HZW1SA2Pfkr6MO4wwk82R+lT4ICdeyS5SUYBXauS38OiZyWjz7rN2eLAYwKEKHVb4CCnACPvcg67YGfPKJx4/3OkMs4wqiggTJi97JgUNt/Nf0tilCQTOGAXaFLCCBzodTU9UmUXhHwNMfCjXf6E1KmY+yQ1RzISOCCt40A8igEQotRtgQNDOMi7qadwzD0fY6eAxqFigND+rVWDcB/cgKD24w06SpIlFA7I9ZNsWBYygQOBA6MrG5dsPrlHSkeSkcABr8iWXqXmJN6cvi7qLYZ8rIxDZpojIXBB+KhPOsLAQ00I/oF8FmF9ZbtVCiBzEY65byE7FUIcKgYIHXNX3oGAzJ+pFDjQb0TevZuWEMzkdV9pmrpyjsrq+ohWTg4qk7fGiZfbAOWBxGBw8m6cEQEBX8k2aRwygQNaHQ+q/45+aisMeeGDePCmXUZt+ThVBBDa/n3lZCuDt/KeOxA4qEyRjbJq6+nkQFOZ4iR/NzwVKiK7MLId5LYCqerldRU44MBBDCcI+IrAASlBfSDKoBaUlHW3v1qOY+49gzgSrVnsgHDEjBV7DG22XgaAodreSwqty5qll9xWYIMFKTACB3pdTY9UWQmeG0buGJEUOX8jgq+vCcEvcFSmV4WmfeZzNsA9vFVGn3V92pUPlne60U4QIH+CwM5Q0xzxHoF4uiaFlGQUsvSI/oHDZfp72in3Vz1g4YE46p7X2aGoxglCx5yV9yPiP9EHJycH+o2ozIKcU2RDbwemrpxNLJZCqxlo6Memk3T8BA4qk7cRYuIKS/nYBA5cCviL0Q+AIHBA3yf9LqCDslo9jWPuPdKo7TKnWE8Q2uesOA7R+gsCWLTBCRxUpshGudqUkwN9TAQO9BqZQK3AQWXezaGFAydYVQaEpMOBYY0uyha2VpQN3btHY/vfn6Ttw8FW8QFCZ6fV0dP2DgIOow1K4KAyRdYw8bKDMYUDZmGXkwPGEmFqW9IywdfXhODnO4MAP1JzJCOfXuW2ArmOhEtcRUAQODC6XUiCg3w2KPsdHPu3vWmFpgqA0D575TWWhdNoAyIRbUBTwVke+En2A9MCRPStdKElD59s6L3EM3JlOgkcMJYIU1uBA4YCDG1jyVlNHQkdDmOsQQrom6gSIAgcGO1FHDjIXew5X+MZj2Pue4xWcPytYjlB2P+SRQNHDBy4BRGa9YMROCATf8FQv7gL2KiXP+jKj9yHuwGmUyyFVtNnxQptvmHmlM2LAbsjV2AIvpUGWiJXG+mTK4A514CphitA0Md37TH8POssxLdiOcsqC1UABIEDo3w3rZtK7cCx9w423BSybrEAQsfcFWkEq00/EIEDgQPyzuEjlWmRjdpnvcABcQNrYDjQK6C3KCaeaWGuPzhwRlxhQBA4qCocFE4RdnePxI6HntLvzRU6QTjyomV7D9mz+U39g4kCBwIHUTfqAAW1NV9rENKwwEFw3hpdvrMua719B58c6KOst0goHFQYEPobDoh1JzA9GHkT2BWzDU87Bv7ZNtR7MPbeD6ARncRwgtAxZ8XbiJbmYQiBA4ED4iL1FUpODtj54+dQ6ZMDcg0jG5bNQuCAnAdsidXm9HXnm/+aY+B7EAQOjPbm2E6vAGDn9v3wqEeM3osQ6RbD+Fm/PajJGvJc+BsT6wkOiKuqUQot+9yJqE+h3ViSXOCAvCmEGTZKzhrtN4y8jSVnNTAcOhzGWEviHbnOVgAQjILlmlWUte9bhPxXSCOeHBSn70zOXodj7xvNLvcRn0HAjrkr30fAIaQjSHbeBzuEx5PdEe/Is1EKLTtbmLrGUmijFAjmeEvOlvO+rCZYxn3qZ90Mfal+jZKzRvsNQ9tK56w21IyxxgsH+VsMcZ4gGAUrRjggahkXrHnaIfYfetIXoY3c7YW+1ru37Ykd6S3csm98gjDhe0s/0jSgZRP56oY1VwM4KC4+Vke0hAyFUdP+AqoFqTmSUUBoGuRdB3EtbI9Krpf4s2RmGVcPEGKFg/7IWfm2QmVqrCeWMZ4gBKwF1hKJcnGgJbGcpHHWkLgAodgOSyxvirjhIDtXeyGOu+/CqgFC+5yVb1qI+8R/eiBwQC4I3Gg3youQ4lzYJRoKHLBzj1THSEY+XQsckOPBltjjEBMg1AkchAICU8xah4McDSno3j4EO9I7ONuG0QnC2MuWfbC1tfmNmoCDyMRFSIa6vwrLrwbCVH1QlJNPZVRu1GE42gsc6C59Qq6OTOMhJwf6RWB6xWsaE5cfuwlfh8oBAmt8pjoWIkTsLNCM6B/YHdPf046hf7GdEP8e+3PYft8d+lzuszAChI45Kx9GxIn+HZkmrsHJQdYliqAEX4EDej6VaEXQ1rdl0wJh2p8zCDk5IF+psuqwaUzk5IAcD7bEgQ4xAIJP26zxma59VlLW0S8z0ktv4ZBA47EZxty7DyJ902QDwqjOP31gUE/PZoEDZvByETS8QGetsrI+qvDMgWd4puM1LRCm/Qkc6LO42jkrcNAPcOB0GREQ4BXPuFnL0nTtCxwQ4SAnVG/vh7HtgVf16z5nwQaE9tkrf2RZeFnoThdTYoSfArE68W6aOoXk5ECnUO5zgQOaTkWtTPOW4Ff3OStw0E9w4NyhfrPr+vP3pSdzn6V66rMfAigDBEK6uloI7pbUDskoyScHbql/hOPunUGNMwsQRl64aMjgPQe8B4ip0g5cASLGKmB3KTYrcOC7+1LjWp1fZhQ4oMcjqxVrcbjaJvgJHNBiUaITQdfAVk2veE37NK2xtLxToF7tuu6CD9NELKv+5YDAmqKpjoUxEDsL31Do046r5hXbIY4/aITl31bQzkT1wLaeYfiJh3ZqTbknCOPnrPhsM1p3BpIfa67BxgIHtEUdit2sWDAXm2d4Rp3lOzUtEFH6lGcOyFeqrNQwjYmcHJDjwZaY5qCUeqHr+gsOomwa5TYlJwi07iKufVZS1vDJQcQ6z4aDguw9Y3Dcg09QYs04QVDYMXfV8wj4kVzDZZkQU2IIHERMmmp8lbFur8IcbasIB5GvEgiLSk4OKHUupm/XaNZmaLgIsfSdSWVPDopdKliXvv58o7ftFQGBNUXTCwOBg9z2yxK7NLPQ/h2Oue8rlIVDBoTRc287YCCkXhQ4oMgaUEhIMSUZBQyi2g8kRhxrkJQVKbQCB/rM9RGeFGKSkU/3cnLQ3ycHxe1WwT+6rj//4/oc8VpkAUH5PKQY2FgV4CDOGuJpyzDf47qwigIHObqwYcfuvfDj/3hfF28yIHTMWdGJaP1nCYqzdQp2kJODKCcHefXY8WD2GVeCh92Lj3Nhl2S/nByQNyPWRZpR0uVOIF0hKR9beKuMPmPJWU1/FcnZKp0c5IVXAHd0XXf+53Qbht/nPEAQODB/FqkQLEb++wZUAVi9R+HoBx/RxZsECPtfsmjgiIEDNiPCwGKD7DEKHLALtC56ORqMkG+MIMZSaDVAUpFC2x8nBwxdPTEm+PqaEPw4V3Sk5khGdX5y0PhwkC0hCv6va+H5U0glp8yIDggJhYOSsme6ZmKEg+x41K047r6v6uJNAoS2OSvGphAfFTjQyekTfFI+kIyCC61uWEEUSfUTOKApVdQpQjx1PQkc6BTKfR5LziYDDhyxMrY9b+0NF11KE7fUigYI/Q0HmouT8ol7hmu6pt25GKGN3KZuEh6XT97f+X8KMtD89p44av22sEZJgDBx7sqfA8C/eRceZbxychCukmnQ5eRAn33Vvq1gGkti8RI40Idc4ICmUVGnXFLZtn3Zmhsu+gnduc9SDwhVgAPtEmKszUaHg0LoVE8bjn9oTSRAcN59MGivAe8iQBP/a9xJgIOAOZLykWTkEz+BA30hEzhggykpHUlGwTlrtFwYfcrJgX5plMGB8z8zSp21duGFt9CcOScIUU5htLu+i1LCRm6aP4z+y7uPJQ/zjcZ5cuAep6V+hGPuC31pkvYEYfyspRObU80PCxz4JaBRtStE3WQtyjMHJNUEDgQOGJtCiVhRNrQY+mQ3wXbI334p9ctk8MS1Pzv/z6TlVWak1k76MLSmXvb6RtGSsTmHdsPQJ64TunqAg5y8W+Bdazged09vUNy1gDBxzorrAfACXuLIyQG7QJMElpMDvUwCB+zcI9VQkpGcHOgTtHx7JV4FMy5QtBfT3lj22DDmsRsuIL08x3Ox/Oix+0NL80tl5wrsNGT5F4wD05KZr7HDAbN/3/BGbSPvH9aMvftwnPCPZ40A4aDOmwbs07P3u6BgAD3vqw0HRBHjSoCsEHJyoM+HkLjERfyeKz9Xw8S0yDXBMna5GPgVx0zwjTVnA+ZJGIaRPgVdnfaNlgtpYD7hY/h58ickqyuWs/k+2cNmO/ieHBRmvH3bu8Of+vWcgB/h0+z1j3/6AGhqzb8jh7CetEPXGmiWLdE/FDKYbZRM28DXQ11R2yDAgdMn2mfh2PsDby2FniBMmLlsXFOqaa1+M9DiXHAJzs7DVAyiX6yF1qjamVaBPj/iVL2xYjiWmDL8PJ0KHGhKqn5JxZqzAgeR4tHgcGAreGfNwgv21ielv4V68tiDAJqfJ8G2tqxoDQQOtIEiwkEO4v+K4+47PqjJUEDomLViOlr4Q+14ch0FmgV+0ghwQMznSBBE7sODobTQecJn3GE47FWs0LoaZg2dZewqTAZ+xUgQfAUOaHkbC9Bq4lGxnDW9ZiDkj28ZCPazAf685voLTqSJ7nMJ8vikj0JTaoO2xmmHrjWocTiIcrFbyAeiBrrdltyMUtC0eWjQ1x3DAAE75qzYiIAH6xNH4CDSFUpYsMmBTjgcsHViO4Qe0erXCLF4CBwYSGkQS81Fjf7jGPpkN8F2IOWsAvhB1/UXfJ8mvA8gPPXZDlAq/K18pKETjMKvNulTiGudxQKp/QUH+X7R7sCx96f9xAsEhPaZiw60UgNe0CsucCBw0F9XYfl+CXWlNEZsB1KhjZwHcRWtsNMK0tRJRj7TDf5tBX2Legv/aTH8SkbcXzlbOycHBTkySp2+duGFt+lrvb+FeurEL4OyF+suaiuzPojg7e48rnXWCHDg6IJqGo6976csQOiYfdsXEK0/mAY1HPQqtKgLg40rAYIuI8jDJxuWyVxP31bor0IrcMBem6R0JBkJHLB3U5eubInZDiygjfINhuz2/OSkywCsH/lKQho6wUhODkIyzrQWFjfMB3DcfZ9kAsLKXyLCucGjkpMDdoEmFRWBA72upguCUIjKO8+6GPiFXcX79kH6R1IG+Y6XNAWSkcABMQp9ZrULB0pB9/tNPUM3XHvxbva08g7q6eN/Djbm3rTr/iOlE8Go1uCgpCQQxh8mbKVegkQOpjN+ZxDv74HjHtte7uZ/i+HMRamJh7W+C4B7+PcjcKDfxMgRchmawgEzSWM5GpOTA32ECXGp9GkXmW8IY/WdsNxWINcCtsRsB9bJQTY1bLir64YLTtDncrCFWn/8PwDxKA4T52wJ8ws1IfiHAgvTv9BW0c3Qv9hORP+CfsbNuB172nHc37tIgDBu9h8Ob8HM0wIHpXs3bRGZRkvgQF9o5eQgpExzl6tJcpf1IXCgz9m8BbsssB3YcOCMLAN40drrz7+eVtsCUuzJ47cB4GDqni9wEPMPLxkFryy/MHMujn3wVyRAaJt72+kpZS3z9isnB+SCwAqawIFeV4EDgQODTZOya8V5lep3Gc0eNtvBCA6y1/BKdXQtvND3CXZKCVMPHjMQ9hq8w2/a7HwNvdonf0jYtgz0zYpVaNrQv+ge0T/Wk4PioG7Fcfd7fv7Z9xZDx+yVv0CEb5QqLXCg38QoS6rcRuBAr6vAAbvYkmoQycinazk50Ods3oIlMcu4bwhZN76v8/zBOzvfGLbpV527TCpXttdnP7UP9La+SeGwXB+EccYJbJ62CP37idHIcJDLn3dg3P3DEUsDFAQIryHCiLIM9M2hQLkNk5acRIG5ZpgAfolLaopkFLD+GgQOtBJoDYL1MaZlgz4bIWeJNZhUqINWvKOTj7x6xfUWxS5LTBl+JWPW+MW5EfkNnDVslnFkOMimiQ03d91wwVRTOMi28dSnDwbV8hxl3yflXFwx8W0nisbkhRXC8ob9l+eWcTOaRdtsfwRHPeB6ZTaABxDGzli6f2uT+4c3gkcjcGAcqQi/ysjss9KFVjscrYHAgVGFNtqhTS5rXaOTk4PwULliwkp7lnEscOBs1jZaJ6y57vy7jNKvkElPn/BJyMB9+jYIcxQ4CJExLw5BxhBCKf2ovC1ln4gTHij5RU8PIHTMWfFZBLxTdyUvcBAlUnJyoC+0pgvCIC5ZFwO/7CSIfnFe0ZhdvgscFJIuro0o6LSCmBK6Ghu6RiLmrAKwe9SW4Y8vnP2ufnMP2XLWT/p/AJbmLYwEQeKKSZzrrNgWYfxhIvb7Vxl96pTvlOxLcfwD89xT8QBC+6zbZlqWdaX8tkJoxCOsKYGDysCB4SKOWGhJiRBn0RI40EiuyYO4NqI6hgNn6LaCpWsWXvhlUv6GXdc6X3EE11ccPbaEdRlXTOJcZ4mDgyxELMfx958RDghzVvzJAjgpKCf0sSQkhG/jBL84EyDo6o8wDPJVY9A8SX2UOzOcPKYM36DCxxqOaX/Z0tXXE6sZlrHr4s3ArzhCgm+sORvQH2EY5jkrtxX0QJu3IMXB3RrbwfjbCuWLSik4pmvhhX+PAgjq2UNboecjOwEw4JX9xPkFmhH9C5OIa62VtMMcg6dORvQ3fgYrRJSgISFsxnH3DQ8FhI45t+1AwIF+iSNwkKWsCGuqCqcHAge0+GR1ihhLXU9xFawgmCVPwXSeAgeNCQeqZ9fb+wxZv3hyty6Fwz5Xjx67PzQ3vRRsQ8i7isEBoW/tJmfYRnZdRvAtvwAxbsrHUddW96798KhHXi8MoYT8Rk9f/tGBzdYGrW6+V8j90YYAACAASURBVJO6noPSiOAXa6ENqKqEYUTeUEh9+IpLW8exkW/IQPWUSBurx0pODtiFlpRPJCOfrgUOGhEOcnuXfUnXwm/PN1yofdvX+kltAJbPOxSIOdeocBALIOTFIUrpjaUBHDiNpHr/Ccc89KAvILTNWXJSCpr/RN6iimMwnQXBT+CAto4FDhg6EfIusDWCb6w5G9AfYRjmQCtw0Khw4MzLtjIfXvPTaa/SFkwItq6bdAWgNavUgpSYIalJ9C906jFn+vu2Y9hGsa2I/tW8reAJr5qK4++/2RcQJs5Z8R0AKCHLcMiLIgTBN9ZCKycH+oIgJwfkjSHIMNacFTiIFI+KnHa5GiWUMKPN0+2U7YPdkauFUl9bwc1rFl4Y6d0HxX1w/fGvAuB+fZ0RxxlXXOKCgxKJiXMIXP8R/fsVDrL4OA/HP3CpLyB0zFpxC1pQfN2iwEEMi9MoXxhOJaYMPy85hlwqhJXpKH3KbQW26CS5SUY+XcvJARlI2BKzHWJ7INE9p929vYc+cePFG/UXCxoluj61DwzIv0Exa0qcn8BBiLB5cYhSehsqc2S34zioe3D8A8cFnSA8AwCHhYY7ZqL1VSvWqzA5OdAXg5BMimtBewYhcFBzcOAKieciNjSJGJUoFqDV9FeRnHU1yphuTja2Q0Q48O9PKfhD18ILT9bXA72FevS4o6E5lf8WBHF+ccXF0w6xf79pFV0jtJENcUT/uE8O2MMpOKj3cPwDe3kA4UPf+tmgDw3fdysCWoFtCxzoV06hILADxCwksRRaTZ9xLWiBA2LehMSDlE8kI5+xNMjJgXb6WoOAONU/HDgTy9h48NobLtjESMZAU/XkpGtAWdPI8BNXLYnz4lHgIB/fMlHt7R/EtjVvOR8Wv8UwbubKUS0p9YTAAXOj9iyhan+V0bToCRzoCyVB2zgLVtCVJmEY5EIdlK8+fei71VsUu4sFaEP60w5Fa9DQcAAKfp1eeOHZ+pzXW6hFkIJRx78LCHvorXUHKIy4xLnWBA784SD7r5mjcfxDD5cAwsS5t31JKVzpG3A5OSCtg2yRZuR7X6MMp1gKrcCBPqCEmMRZsAQONCEROAgXKDxfd+3etfe6/7n0HX3e6y3U45/+GKSa1+stBQ5IMSOUGv92yhzZ7QQ4oH0mjntwSQkgtM9ZOQ1BXeN3gWG464UQSlkvsRbagM2PJB7JKPhKw8id4SRwQKpJub2Woat/0pPWdqmRaZ8BfqTmSEY+c3Hexk8qO/6+tEiUhSHCWIP60zapNQhez4VPWE2wjMuuEQx9NbmeUfY31y789i+oIdPZqSeOuwQs62qdXfiwGHONc38otsXo32+iDfPMgd/yVtNxwgM/LgeE6xDUhSXmdVdo+wMO8olmlG8MJ4EDbT3KGtRdzvYTHDjd+nStz0i9RTFQseRsSH/aoWgNGh4ObFAvr/nHo4dA+sYe2gLScLEChCePd55jODDUMlR6RlwEDvSAzpAz15huTalf4IQHvlkGCCv+igDFrzfUX6HtJzhgB8fgsiSWQktJDOPLtJBaId9WCBZH4ECzHbGlK7skN9gTXTFhrW2WcVVODpxOerozhzz2i2nPGwjh66LWHT8SENYJHJgqGuWCMsoeR9h3+k5X7scJD3yqBBA6Zq94DRBG1OdVWBThDBe28fMGmo26PO8EDmgrUU4OCDrJtxXIQMIqCyzjqsFBxlYz195w0Q8JiUE2UeuO+w9A678CHeTkIERLU/gM2dzZqUe4KFHqdWx7IPsCrOy3GNq/tWoQ7G1vQwSsv5MDwoTNsjk80OzAEAhO4MDs2QGBA0KBFzhIEhwA4OPp698YD9AZ8KQJIWXKTNTth7bCQR9xXtH8Af/jhbA2GQWzkW8rMK8Py2iyVGCGpDlH6l6pFOz5yiA8eNOuLCCMm73s8GZMPS1wQFk0pt9UYGaGnBxQgiHPHJBUEjhIEhwoBd2vZ1J7vXrjeTtI6UE0UusmTQLEuwQOiIIVzerk5MA9rczOQ7EjvTELCG2zlk2yMHWXPPmtC7zAgU6hkkfjWYTLMnYBsYGf38INmlicVzNkgvcbjOk8BQ6SBAfOl9gzoDrWXn/RWv1a5VmoJ4//Iyj4nMcrrtsKvtdQhnnfdz+dN8ly67i+rcC8PuyfkwPX5JX9GWx78G9ZQJgwe/mUFOCvzZUkBLFRCq2RSAR9Cu3KyQFNYbmtQNDJFA4Y+eopfExfCqxpm9QaBGhlemVn2F+knNX3mf3iqq3O77rhop8TkoNlotYdeyhg6lmBA45spvnluxm4LoqoYwjJGV062eor2P7A73InCLOXz7AAr6J2G0o35Isf3QhZl3TEw48IfZq6cr6PX7dwUHabk6UVy9i1SAz8KJtRyNokJplP4gaMlTQFkpF/n46rj3t4i8z+YsnZCIWMs75KVDIt3kx9SvLJ0JcwR6VA2UrNX3vDRcVf4uPX82APte74ywFhdpCEXk/mXD3mTH/PujX0L7YT0d8dM6Om2Au3LARR1pRTN+zvYNuD1+RvMSy/1kL8Ni+hiLP2NSP6UnCV3BTZ0Cu0qSthYfvvWcYdEr7jygQvbVKU7UKsobOMGwcOyNMmG/rnLLvGMPsTONCujqxBViemtgyYdeBAKfjtmhsuPIs2IJ6VevKovUENeRkAB9CGxZyrwIF+c2dJGhEOnNHY9g+x/cGZuW8xzFp+GyKeSk8b4mgFDmiSxlJoNUUoNGTEePoCm8uX1QzLWOCAlkm5jaiM2TwXV75tMeMRS85GKWTM8frtbKwmWMZ9ClcBDgDUiq6FF51OThGmoVo36TJA/JHAAUW4fJ4YpovBkZ8eLmgFwNWOU0PsW7DtobNygDB7+WoEbKdMn0zCAgcGcppmlcav0nDAHjbbIeJVGPEKrlFy1mce4Yoz4yFwwFjbTG1pu3DWyjk5ALCXdS389pdpA+JbqY3tw2D3sBcBcGiu07A2mHP1mDP9PRufoX+xnYj+kX+y2Udg1pCiAHeZmAj34PgHjiucILyCiB/Spw9xtI1SaPWC+FgQNfLkAsOvpFeBA32YCNo2Ss4KHASkg0sYQjqUHQHoU6zcItsHq6PSKzhNjw4Z2Lb69dobLjqXPzi6h3py0ixQeIXAgU6zfKxNQ+4nMKutGOEgR59PYduDH0MAhe2zb+tGwKZwCYijbZRCq8sH38+JGgkc0NWNVGiJRbpRclbgIBFwAKB6lW1d3XXDBTPpC4lvqZ4+djhkLOf0YKCcHITpV8NwQCyBXphV7+KEBz+AR85etvcQsN4WOMgrydjjSzVjOJaYMvzk5IBZ5QjaChzQNK10zmpDpTVIBBwoBTuUsqetueHbv6QFztxKrZt0DSBOEzioUzggL5mAIph5oBXbv7fkSGxpejJYAmIvjVJo2euJqE+h3UoXWi0xMsdb1MPxMyVlgz7l5ICQifJAIvnChpWCLOO+IUTKWX2fSsErvQo/99gNFzxBSI5IJmrdcaMA8XFQmL0N7f+nH3P4NQ3T31NDDf2L7UT0j/xVRp9izR5SgAO5nRDD1l0fwvEzb/tEkwUPREoAgQPaYhQ4YOhEznCfNgm+jZKzPvMInz1BG7eilc5Z7XC0BvrNi9UEy7gqcJB9ARLAX4euf/Pz99zT2UtbROZWqhMsmHz8XaDg2IaFg+zebBjrrCguX+NmyhzZ7VQQDpwp9u4eg+0zl34RrdTvvYlAGG2gCcHXN/PY1c7VSoQ+jVyZTpUutD4wWioxc7xFZ8cv78tugu0g31Yg1XU5OQiXybR4G+Rrcd0Z+uoeZFSww1Y4e80NF1xDSo0YjNT6Y78BKvULgYMgBUzzK5C8DZ5nrTAcOEPF3k9h28zlX7csvJm9mdQMHJguzPzKNnJnOlUaDrTD0RqEXIXVCxwQ5+hrRvT1qNSPQMvumjnHus7ZfKBYU2YZV/zkIPcVRvX4+7syJ2y46eK3Ytj3SU2oFz65F2xveQEU7uHvwNTJY870Lwyi6GboX7I3R2kjIXDgTFNlTsEJM5dPS1noolOCeAIHpMVWfhJlgIn6SqcNl9ZA4IAezfATK7LUZMOykcnJQRJODhSo7ZDBaV0/u/Amo9Q0dFIACOuPXwUKvihw4KdAguAgt3lNxbZZt821EP47JwehcAkc0Jdf3V6FuX5bgZAS7NOncgWzfbA70sNTyVWDZsHTo2ryAwfhYEHqW+AgAXDQYytYvObtu6fC4sUZUlrEaKTWTZoG4L5Y1C6g4N4b7uTAVaNMS1V5jWO3E+BAbodgWLpnXYwds277ISBMJxVogQP6chQ4oGklcEDQSeCgkeHAeQgRQT2ya/fuL6z7n0vfISRE7Cbq0U8fDE3NzwCAz/twCBuLliWYbZRcMxj4ei5CoraR9zdupsyR3U614SB7HTQX22Yvu8ECPE+bcb7jY88y/EqK1BzJKGA6+UKrnazvJS7dK3FwYBgTgQNCTgkcNCocOM8ZIKhH31M7Ttp4w/Q3CclQEZPsrYV1k54DwIO8HTDXdlz7RLEdZv++B4VR20ggHOR0vBLbZy2/BRG+qs28uAJf7MinQVIcSUb9BwixwEEJPjPXrKk+jp/pQjDoMxIcaPQpKBZrzprmK3GsvhlrCgfMPmPJWU0OhH5skD9ZvVx+7CbYDrF+w0Yp9Yf3Mk1nPXfjeVu0tbfCBmrd8X8CgJP8u2HoFOd6iwsQIn2V0ZVjDBlKdYxSN6LsA+5RGK5Npa53AGEVIpwcmoNxBr58YYcW8/JRGUep71fu2IuN0WcshTZKUjDGWqJDPT1zQNz8Ys3ZKIvcNCYCB+FLtf7gwLmVoDIw/a13di18efGlO9mlqAIOat1x1wDgtwH8XojEyN0411vDwIFPrWJIGnrbn9QOySikG3Uzts1adpeFOCkw9+IMvMABYYmHBLUiV2ECB+SNiAWzRJCJ9eSAWBB858H0LY7b8OokqBYQVki9nRwoZf+lO5M5/wl44kW48cYe0hSrYKQenzQNLJwPAJa3O0Y+xLlHNAwcRLmoiHKRyCxSYWHGzHIHEB60EI8JqlOREsfjbCoaI1n9+jRyZzjJyQGtnGV1YuhKyR/SIZNpn6b5GmWepicHzDnGkrMCB0GJrwAesqH7sp27dj3+9C9nbqUtkOpZqfWTTgcbFgH6/UgfI5cEDnyCFqVu1AgcZF/eCXdg+6xlaxFxHK0WMxKH0iCpOZJRwMqqwkOJsRTaKElhqo+cHMjJQUSQCROwIqddrkbZac92YD1zoBT02KBuymQy83ZuV69u+M3F71dvu+f1pNZ+5jhobvojALRGugAUOKgAHISsSVIKk4w012nFveFv2DF72dMAeHjJTOMMfLZhU6IiTjbo+MPIneEkcECrTHJyQNBJTg7IwMZYork22Q5aOFCgtgHgkkyv/WurxX56zRv7vgGLJ1f93QWExCot7Y8feyxY1h8BcIDAQbkCUQA0yj7nHkdArpJSmGREhQPnuy2PYPvsZZsQ8CPFIQoc0NacwAFDJ2LiUk6d/HqNNWdNYdZwIypsYE637K6ZusaSsyF9aoejNQjIqSiF26BPF9DmXnkMzyuAv9oq8+eUhY+rnZm319x08dtm5EFbNpWwUuuOOwUAFwGgnByE1RqDlDFYvLTTB3JZIQ461Mx1quz0i7DOAYRXEXC/YNAmdhx0FR8CacGLwLTPvJ+RO8MplkKriXzocBhjLRG5nm4rEOcocEDbS2LJ2caAAwWwGxTsAoQtSsE7COo156eUAa2NSmU2WgAvAaotape95V17yDubfnXuLprItWulnjj2IkBrHgA2y8mBnBx4c6AMDnLb00bna45vIcJw/1M4YpEWODCoDKbF1jQmDQoHCjIA+LgC+1EA9UQG4Emw7XctTG1DW23v7cFdvQN7dvZuwZ7d9ks9mzZBL9zjPIHT6bMiDMIoLqJAjSug1h23AMC6CABSkeDA95rGsB4V3Qz9CxOJ6z0H5Ct1whUve0oBDuR2CIack4O+Kb6I7bOXb0EFQyMnTkkDPqMhzMHoXqH76IPUByHAQQs+lqswOTkIr6fBQVQAzq/M/cG2M38Fy3rBUvhK+pXWN+vh3m+N7yEyvAZVQK2fdAco+Gzk9xw0JBy4JhXX3sFup2bhAECp151vMexAwIGl64M9S5e7wIHpBhj+LJVpTOrz5MC596sAHkdl34zQ9ND7qe1PP/OT85z7vvInCogCGgXU458+AJqanbOyQ/xNmfXEY870L17xe/7DLJaRTw4SAAfaEGkPUTdj+8xluxDdD61oWw0JaD/AgfFwGY5yckBbxFmdGLqWnTopgB2ocFlvpmdJL2b+/sSCb75B61isRAFRoLj1rj/uEgC8CpTf8wYGa1TgoCy5TPc5dzMVPjnQlmEtHDilfKsDCN2IhUTStipwYFyHQrQNld00JnVycqAgo5RaBoD/u7O79d7110/eZiyxOIoCCVZAPfbJvSDVuggATgiWgVlPBA6SCQe5We/AjlnLnVd/Nplf+QUQKSkPSUY+uW76AiQmPcvJAa3cGpwcKIXPKmUv6N0Fix+7YWq//ZIdbYJiJQrUrgKqEyyYfPw0APgBKBgscBAWq3xRN916yk9I2e1U+ORAu8URTg765NvlPIOQQd93cVMWRJTJspXND0jgIDwyNX5yoOAuG+DHXcM23gmd8k0CyioTG1EgSAG1/tiPA1gLAPCoWJ9hiv3kQLtzhQe535858Bk/ewszPUUuSEPoMNSEAQe5i77uCIAgcKAvW6YJQUgE385rFw6UUr+3lbp8zfyzH9LrJhaigCgQeh38zPGHQK+6AgAnZ+3ivE0pcOB/au3+V3aJNt0L+gsOsknVix0zl/YCos/3YwnHNOUmJNFIRv4BMnXlPDhXt7cVnIGbHp8ZCEu8raAU3JPJwNy110x5UEq+KCAKRFNAOWDQrWaDhf9a/BVGgQONqKZ1MWBzZpfL/oYD196gS7/S/c/G9plLXQ8p6rxDUJUkGslI4IAShhKb2js5UApeULY9s2vB2c5DU6aBZyshDqJAIyqg1h13NABeDAhfLXmngcCBwIE2B4jl13tyZGP7rKW7EbCFtqjktoJeJ1NaJAbRM4DaOjlQALZSagFu3zkzfeN5zgOw8icKiAIGCqin/mkPyDSfAmhdnH3GgHViy6wntXZbIXstypxDiT4uX+NmyhzZ7ZjuBQEnF345VDE4yAbAucWwbAcglL0oiTgSsmBkw7KO5YHE8LpSY3Cg1Dql4Myu+VOfNKiH4iIKJF4BdfuhrXDwAR8HhV8BwCkAAd9K0G4MDCljhwPTeu8as8CBPoDaHCDGwdcsu7d0O88gvA+Ie+g3Iu/erZ9BlkJoZn54bOrK6bOkD+MOw+epDaSJRLUDB9lfvLPVz9ILpl4YIeAmIoiPKFD3CmTfX9DU2g4ApwHAWQCwZ+ik4qwnAgc+Uif+5KCgSfZrjm8jwN7BCemTjeR9lGxYxycHmjnGuZiLKtUQHABsAYWT0/O+fmfdV2qZgChQBQXUmmP3hBY8AtDqAIDJgPhPoJwfUiLWy0Azon9hjg0HB64LUqYUfWEXOHBpscN5BuF1BNzXf10IHLBPVtwOjQ0HziHgky+/pY564+ap26tQV6ULUaCuFFAKLHj++H2g19oPdvV+BFLWpwHxREAYCc5nJX/EHU3gICQH8uIQpfQ2JHBQlpNbnG8xvISI+2vFcsGZfpWaRqienjlI7slB7oeU1B1d86Z+Xp8LYiEK1L8C2bcVfuZYCw6CJtjd0wxbBrRAqxoAg2EA9FqDAOw9QKk9Aa2PAcBoQBgDCsYDYEp/MECslxWDA1Zx97nYJo4/LA0iPXMgJwe50ydiHHzNfP/xLecE4VkEPFRLs8S+yYP0JIspHJAHluuxxJzpWxxzguEAlI0KfrF63tTz6r3sZ4v+N07aE3Y27QnNaihA0wgAdTgodRggHgAKPgwIe4PCvQDUQAD3j5oRiqo2vbQGPjlLPqLyD0+tHSsrxtvdfGfkmhBRzvhqXR3mAH1zCF/exXaMRC8LQdQ25OSAte/Sa8CrDiA8joCjfbAw9J+I1Ye4hwgchAtVK+85wF6Vsa9ML5j678TA1oyZev7YAaAG7QtNTftALx4LaH8RAD4OgANKBkmuVVEgsdAjobO4rhp99zJC/34RjG1zsFl1zTsUgQPWAhM48JGrTBT2kghwILdDMAw1cT4ktBFYckJ9N2HbjKWPWBY6D8v4d0Tum2xYFiSBAz2qmxKyQUyyLr5+vQqs76evPusqVlHqJ2O17tgh0Dz4g9BknQCWdTYoBwYK930rvKhJshOMBA5CskfggLW0YocDwumJboByW0GnEOEV2oQ6Eno9Euavnna+xfA3BPiU70jIfZMNBQ70KeGycNEhW2K2Qz4FfPycn2S2YW56wZSahQOlAOH1zw+H7c3tYMH3AeETJW+cK6oqcMC64nDna1E6g9wqP6aJtDnUMByQpCEZhYSJ6G+8MQQUqZJumWMobzJS/F1wYjwM3zrHqM4hHZPGRDAKNXHtDZRRmwHiGuyYseyPYKnPefogjN+40BROK0h9eDKLIkefTSxJHSUZjCaZv4rP+7KbYDsEwoHzZkS01RWr50/9Pk/4yltnoeCZL+0NralTQdlXA+BQ/WmMjwVZLo0hqR2SUQU3B2L/gcvO0N8NaJE2h3qHA+KVd6DMTP3NNgbvIomljuabjRR/gQPWA4mB6UbJI/tBbJ+5bDGi+nI54OvLO6WDoFYa5LaCVgKtQQiq1wAcOC9AUvA/6flTvqnPh+pZqEdPHAzDWj8NCm8GwJB3ePhe/pYOlBwigYNoFwT5ShVpcxA4YK0ygQPa1QC5BmjgjtQOwSjUxPmQ0EboUIn+AH/B9hlLfoUWnu0GfH0SkjvwD5CRO9MpFuIN6VM7HK1BgMy18kCi8yp0vDM97+sn6fOh8hbZ04KNJ+4DqdZfAFhf4vfoEw9yiAQOyEUpMDDORQFZ8PDCbtRMlPjHsTHIyUG0+MvJAevkIHCNcBaPWoltM5f81EK8KLsiSb4ko+ArYyN3plPi4ICpTyE6WbcgX/XM6qunHsHfiOP1yILBhpMmQHPrXaAw/BW0YZtT+WdkyQQOiIUhJPACByQNtVeOxLXl2w454QNO2Az9i7Umor/xT9mXFDvD08MqAaI2/kQNY4EDZ872b5zfYvgBIMypPCCY3lYgk0su+JWGA+1wiEH0rHXHL+/LboLtEPxAYm5cO3vt3g+tnX/ue8SSVBEztemUL4LCpYCqJfvAocE0Awszua2ogEDsKLZF7cd8xDH4QpShr7utuN51YDwUH0dWWyHGpHYIRtrNgbHEPG0R+vdrvuhm6F+SA1HacPkaN1PmyG4nwIHcDsEw1ITxvhDfdgj9e9a/vRA7Zi6eAWhdRSu+Bp0Udm1TV9rABA4Y9SMnaXBAbJU6pWve11ZxmozTVj138olgpZYBqEHFbyIY5U+FF7V2TFoDn7wtqao8WeMqDMX0II4/bJQCB7QYBkrNjEHDwYGrVjGl6BNe4ICWhC6rrGT2VThh+qILUlbqen0DptGRk4NwbWvnmYP8UlyYvnqK86uMVf9Tz3/pSEDrDgA4AACwOACj1BM4IB1rB145Gole2prAAW0NCRyE6JQXxzgdBQ5oSVgOB841pD0X22cu+hpC6jfhjZhGR+CgzuBgfbpr4zi4p7OXnVQRHNSzn2+F1tblYMOJAGW/ameUegIH0eAg/ISJFGqBA5JMwQd5zMSP6/So2A6zf1/QjNpGFDjw6Zs9nArXEe0yc/onDjqu+LvHpNS3ccL3Fn8+1WTdHpzNxAF6GhA4qCs4UKB22/b4Jxac/RitssVjpTad8q8A1gIAGJJr0ZVvRqlX4UWtHZPWwDPNsstunrCVKAzUohQ0UoEDWgwb9eQg0rdVCtIlHQ764ZmDkvKbhZOzsP2y247GVObv/hlNLHYCB7SCULSqrdsK2bxQcFV63pRZzIkYm6vXTxwMuwbeCQDH9L3xsN7hQHtJUGE4MF2vbi6L0EbhF+WiNFEJQGSNJ8SY1A7JqHFfhNXvcOCzBokh6StmFb7I0JaJWoADpyZkvoDjLr318Obm5qe9lZ6tar4JOTmop5ODHByoTVt63ztyw7UX7zbe8RmO6sVTTgEb/xfA/bXFeocD4nqptatGz1UDI5AlplG/ylih0yNiWDTkRjzpJXZWazlQHA9x/IEnRxH9s+1GOTkQOCAmash274oh9hyD7d+7ZTg2tb5V6mEaaIGDeoMDZ7x2xv5S14Kzf2+6NXD81POnLATEfwPAJl9iN0q9ChO/dkxagwY/Ocg+0MRJAx/bCgAiMSwCB4VwsAQr2zIi+BZbqlE40F7xM/QLlcn5kKijrxnRt3z1BQFi7+7DEaDT6pgxuhsQU9qFEloCBA7qEQ6UUren5009mZ6ZZvtA9kHE5pa/lt5SqNBVI3lBEwy1a05rQFhWxDZ86xDT1x2+2K4cBQ5Iq6JmTw4I6yBsgo18W4EsDWEdhpow1lA14MCZd2r3XtmvkrXPXPoqAuxHphdPsggc1CMcOL+00AOZMY/OO2cdqcAZGqlXTj0AeuB+ADyw7LLD9xCB3k2dnByEFhlCYfHd1MmVy19OgYO8LiH6k0JDMqrhZw6i5hFx/rqLy0jDKBsDe0hVyIF6gwNQu6Hj4YE5QJixZA0ijKcX5rKKxQ6I76VQePclfZh2qPHTHv+YKFR7DyQWZmEr9fOueVO/ZTIrqo968ZQOsPHPpc8blFUDo3AKHFBj4MfzuX8zEt4FdYyrHt/Buvo3GoqPE6udKmwMFYPDCPGLpZYW+IoluE8W5P2NmxE4MKoDuhxQ6iWc+PCBWUBom7Hkdgvh8/yO5OQgXDNTODBcLVk3mq8CZfd0w6GP/XTq8/y40zzUc6edCJZaDoCDSj0qsDHQp67XSCuh1sC1iQZpxWjDMzembxnPCxxokoUkL8mo9k4OmVoNYAAAIABJREFUSqZOnENgCkf0r9UHEsm1hDB/7UUnoY3A8RB9y+Ong4Osvf0wdjxydP4Ww5IbEYD5k74CB/UKB/kN4rrVV0/9Nm2r51upTV/6PIC1DAAHBMIBeSH67nChzQaPWLOotGtOa1BhODASrYwJGHPwE1IeSKQtCO3mQGvGy/wR4ld0jdBGNgUj+iceDhinb75SG+pPgoPsQ8dLceIjX86fICz+Twuxk5iuuSsww/GxHKmTCR14lA3BdJK1e3KQX9vO8j68a96UDfSY0y3Vc6d+Cixwbiu0ChyE4rteVE8KGuZkbBsDo7D5zs41fqOp+Dix2gkxJrVDMtKUOWIbvizI8A1MvQhtCBzoTyC1DM9YQ/0BB9nx2/Nx4iOX5ABh+qJvWZb1M321ys/cOL8YjgIH5HCwoMs5PFLq1q55U79K64Bnlf89hTW1d3KgWbXa1NQayMmBNlVqGA60RZ1kUHZS43v8olWpaBAXHJYMnZHHvsOP6J/4kwNHP6KG/QUHTtxtezoe9ciPc4Bw2ZIvWSlYqc9cOTkI16i2Tw4KY1cZ9fH0gqn/0MebZ6GeP21PQHip77XJxR5LGyKuD+2Oy2onypUjo6NAU0YbcV45yslBPo00+mvDozWoMBwwAKV82caWA0QNAstG3t+4mTJHdjtRagBRf+2YiKcH/QkH2fips7Dj4VtygPC9Re1Wk7U6fDsQONDqY0TH2ozy7zbrxve1FazvmrdxDEAnMVPpkKA2nfoyAH44lAbYQw5wYLUTpTAQOwo1I7YRwFMmcc6t8cAG6UHNthM1VVzzZ0oRuOuy2hE4MM6hYgqxBPfJL4EDAMY68shtqH+JG6MN2z4Wj3rk3iwgjJy+aMQgy3otuGoIHDQCHDhzyKjer66Zd+6tvB1Cb602neo8c3BCY8EBEcIaGQ6cosaoK95M6W840MRQOzetQSDD9GlBbCNwqAx/dwBiA0TD/otjETioKzjIxq33UOxIb8wCgvM2xfYZo3YiYovvAjfOD4ajKemUDDjKlQJjrCV91sdthXzt6c7YvfuunX/ue/otn26hXjjlO6BwXt+PLvlUOra8AQ6sdkKMSe0QjGoRDoryE8YfGmaBA9IqiCsHfNsxiGEstTQ/c/m2gj4FtCGKcnJAvEgpH2WkHFA2bH1zMB63aVceEJyXJS1+ChGP8FwBaicfpB/DMdJkCv33Bxw4fZrQMUMbzxWBoa/z2kTAX6SvnsL8Omv4+lAvnXwYZJqeiffKUeAg0mV7Vj7TPHGtp0ibg6t/o6H4OLHbiQKIxM4EDkIKhElt9D0Cyf0jMSR9LUSJP7FD7Zj6Ew60g/OPnVIv48SHD3A+LAJC24zFKyzEU0rENWyfFUmBAz2hRr4izInco9TRj847+2Fah3ortW5kCww+/A0A2NMDlkRuCwWLkFqhwZbgj0k5TTCKa2PwrUOE/v1mWHQz9C+2GfWXGesdDuLYHBgx8DVl+PuuNQP/kvUW0d/owkmz4FlD6m84cPpnDDj2HGD07akl9p+x45ETSwChffriH6GFlxVRzbh9hqPAgX4XjgkOAOD9HS8N2Gf94sndtE71VuqF0+aBgu8mDg5C9w9G/gsc+CSZj34sSTXGpLYIRoEmBF8t+DLb8OSRgX8l4IDIWaSLBNaUBA701TvEwravwaMe+U4JIPS9C6FBHkjUJpTWIEBBFxmymmAZ9/WddTP0dfnZtvpx1/yzp0dKHJez2viFwyHV8nR8cBAwT/LUCYZaE61BkZ/9dST6+17xRYhzsVtm/55J1PvJgcCBea3IJ0Ok20plOWyUjhUERNJ4CEahJq79gVJsfdsijKG87RIXA393TVL2RXjUI9eXAsL3fneS1WT9yXgv4jjGMpkolGgqYH3CQXbZ2tienj+li5KzOht197FNcPCwjX2/zlimp5G8UQoDoUOtidZA4CA0MVz6EaUMhMtAgAobQELhoGRPNhLedTES0V9uK/Au5moRDrIxtL+AE1f/sQQQxs5YdEQL4FO6zSHylZPAAU3irE6mC7bUTynV8wYMHPbyvMk7aZ2HW6nnTjkFLGuF745pNGSBA6O4FGUzEt3VpZwckNaa9sqREUVPW4YxjCsH4jo5MJyGr/6stqJcMBKJVBt/xoBrFg4AoBmOwPEPZx88Lz6kuP8lVw/ct3n/bQho0dOcIYhnv2P6FgcVJRGi9Jn3ZTXBMnaRfHxwkDs9gMXp+VMn0+MabKle/dIg2J16DxCaPYvaaLoCB0ZxiWtjyP6uilHg8sN2+Ro3U+bIakdjTGqLYKTdHBhRFDgoEytKDdDUSkJofS90ysOpjT+5owAWZfj78oyBf0k7xf0tA4O3DcJR67PPqhUBwfkf7dMXP4MIh9FSnTmgEnOmr8ABLSQBJw4ZpT67Zt7ZfyE2Emqmnj/tAkC4vv/hgABR2jTTGmhqB9E/8AKF6e9px9DfvZ4EDvTLQrs56JsILmGGMYwLECPF37UGDachJweEOuaXXrHspwXGd0O+Wo9HPTKq0GUJILTNWPxbC+Ar+nRnZkMskwnpUzscrUHAlB2/IlnpZaGATFgr2a6ijNW/8e6e3Qc8du03X2ZMwNdUPfv5odDc4rxkqSRvzIZcwasGkoxEnQPNiP4CByFpFyUHNPqTwkMwEjjQx48go38jUeKvWeTkMUXNo/58zwGp0IWX/XJARPUr7HjkXH9AmL54hoVwlaZF3j4jcEDTq0JwoAC2p6+esgcAkpdM0IDVc1/6BljWL0o+N2q1goWBtGaIgxY4CAHnwtUHLb29VlFyIGpRJyVJfD/Z7NsdMQfLhSu6GfoXgTWiv9GFk3syUeJfK3DguoDULQNfuQ1iEMt+Wli7fjHIXIhHpRf6AsKEGYtOSQHmHz7zmzFzQrFMJqRP7XC0BiEFMO/LaoJl3Nd3heDA6cBWeGPXvCnn6fJX97l6/tgBgHtuAVB9r+M2mm4FCwOp7hMHLXBQo3AQx+ZAyIFQE4J/6F7I9C9u6p7/0C1b/8/7/baCTwxZkkTZExgaanOAOOh6gQNHGqv3eGzv+qs/IHxv0chUCtcFZBUvGesWDurntxUotyNshZ/umjflPl7wfK73Np58PKRSfc8xENdGaUsVhAPSeEhGIbIS/QNrENPfs8lE8M+2VYMPJJKgLnS3LQNtXaYTNNRuDLo+XJ972iL079d80c3Qv5iTEf0jnxwIHFDqticFYtlP862GASJmPoId6Rd9AeHQade0Dhuw307EsnvM3JvMsUwmCiWaLoLGggMnbL0qc/Da+eduYpQ0X1O16dQnAeDIwj7Dby9hcOCpg6Y5WXgsJYJ/cXNg3C8Nq1DGQ6mDHBA4CFnaeXGM4y9wUNNwAGoLTnyk5LX5pQ+bOd9kuGzRWrRwHBPLA8xNM0ngIHwDJuiau1hUr+3YOeTVG8/bwd/QXSF95ZQjoCf/jgxC1z7nD6R/Ch5jlHxgXKIGdmMw6VggWeCAVIdI4SEYCRzUMByErGNCaHMTIxhqc4DQRmBXRF93FOKqI9kx6fq3V+DE1ae5u/cCwvTfXYNoTSMLGvtkomwGOgGC8t/xM6Fjw/6yboa+VD/lPH8AT3bNnzoyChxkR/r8KZ2A+J/Urkv7C5gnefoaQ1I7JKPau7VQHDZx/IGBrvefbY5SE4rHJ/plEBcg+rZjEMOqbg46eUzqY+DmYLC9RM0Bgv4VhQPDmh9XDaDsOUp9F496ZEEoILRN/+2/WNh0K3sDiyWZoyQBIQF810CD3VZw56EN81cvmHqJbumHfZ59rfIhw94HGwby2xE4YK8jz35mmteFhgQOSDEQOKjg6YGPuKy0jrIvEDfmmoYD4hzCrn9JV3f2cThx9T2aE4Rb2xCtNGszEDigyUWhuMCWiCvKZWbb8LmuBVPvoA3O30q9eEoHZPARszaiFAY5OSBtbKGBETggaVhrcFCyHxDXfeDmENHf6GRVTg5Ip6ihV2YaDakFmbPnZHaMwI8/8UYoIIy8cNGQQUNgK7X/UjAxTcYohGjaZwOfHOSDp3rtQ9PXnrORHEsfQ/XcqT8AhDn8NgQO+Jq57zyZ5rWcHPTpTtBQe+VIjKJvO4T+/ZqP7VjZsP/imPL+xs1EqQGaq2bymKJcaDi+xI7igkzPtIn9++YRy/d5nPjwIeXNeJ5BcAzap/8ujYht2qUhJwdaibIGHIrztEgIcoDJLnv3iCcWfLOECGkDzlkpBQgvnPomKBjO8Yv2+tQoC7owSoJmofWH6B/YHdPf046hfzFIcnJAKuwCByHLut7hgLCGQk0Y3/ipCBxqAElXkLUPJJY1YNvX4tGrLyYBQtv03/3AQgy/ahQ40IUov8tGCXSUJFegtu8anI7wDQb13ClHAHJ/4bO/rxoImgkc6DeGKGlbftVFDIlrwfiPj9QOySi+tyR6uiP273vFxwTcoChyN4egixLjqdRBDWhoODBYvAgn///2zgTckqq69/9Vtye6aUYRRJQZBcLQ3bfvbSaZiYpgXl7AFyVGkzxNoqgMxiTvi+nne5kTE4nJ0xgTEQQkGmISTfISh2iY7+2JpmlooNsgCkIzSDc93Htq56sz3Tqnhr32UOfUqVr9fS8Pu9dae++11t77t9euU0Xj932VCQi3vDGgec3vQaf+ETgoPxxA7Zn+43ct4nU0I8xb3/I2YOw2vo1hLgwGq5mvcqCvzaFrx2AMqRuMwalHN7GtulJg/FlrHrPTUjnQAyLTlUlDBeYAq08MIa0Icx6VsnLAmijJsIU4hibv28oChNM/dOtR8xaMJYSbygIHvP2y6SdtJnIIjAFpcZFWmyrE9PQnfnac19ksQLjsNiB4m95GxjiNhp8jrLWjFZgbgsCBPucM3Kl1LNuWRlBrRyvQ6qrAgcBB7oJWQziAegZfvf8wWo3E4FOfQQBWByt+5cSnCdR79yxwoN8ru4sQc8FKWGToMTa5MFSfW/OJd3W/ysXreGy5Vwiw7fLnAdovX3fYcKBd9bV7mDHIJYbMiFmaE7tqlvodm4q5qGUGMta+VVeGnQPMTgscCBz4gIPUJYeZg/3te9lTHZ9zI3UDjd//wTTXZABC80HFzxDRL3SVvAxkQKfEnpFW7NcKqS5M+csGfWTqhnf+vikYdPecRy8/DmO0ReCgzwNlg4MI+i3XpsSR2sqOwIF1ALwBolXgYond1rc206dobMdlX/BxQIhsGEC29zXAYAyZBw1jp8dPgxfRxP1fNwKE5R++7S0BBf/QVBI44O2zTT/ZBoqhx4WD5hVDeOX0J979N7yOJ6XUtsveBBV8LVt/2BuDga8zXcvwedwBvhaGbtcN208EY9gfXxp2DjD9J5WDwVUOmCGJ7U7GS0yvArPBXDEXODBYhzLXEuYYioCDyCY1Dqfx6R8YAcKp199+9IIAjwscMLfYEsFB1OPZMJxY94l3W77gCFDbLvt1qOC30kc/7I3BYFIKHGQkcMwxVutTipKxHZeTI7MxgYPBwYHBtGx1yiX+Bo0JHOTkQPgArZw6NUsg84oBq1cHK3bGn0NgTsi0U05W61qTWoEMyzW9Voh5Q80qp5ckqa2X/T0QXJZSWzBiBmNhVshZQuX7tkKVKwfMkAz05ChwoIcDg31We3L3lQMsOywhTUG35pWDCNAo/CUan/6UOSAAWH7dFz8eBHRNIWVzbXy1AgIHOdN/VoVOn3lWW9/6fQCvYgGCUag0wlpbWgHN4YSp3xl4QtxQP+5ApypTrEND/Z37sCsHzB1N4KDecKCdpgIHzQRpzJ5Mq9ZusgKEFdfdfjYF6js5mcZLwn4pbfC0AgIHmqDs3tN47cY//7knbGKnHrtofwRLXhA4ME7cbHcLHLR9M4CyssABb122WmYLBERWfxhCWhGBg2aCKPUiAnUIjU/PWAHCCdfd8or9grFnzDcZl0VAG12BA0ZAZoAj1v/xzz7JEE2IqG2Xngg1r48qXRcGqRzYxGJOx/WBxNjJ22qKucZfc/Jn9Ykh5AsOUrvLaD8tyF01S/1u8chRP37nb2WqwBxg98d1HRE4aMFB9H/C36GJ6dw3Jmc/g9BOyhUf/uK9BEzwF7dhwEHUZrtddqJpFqy8ATudBhkdTBVh6MX6PLMLR6z/lCUgPPaWCxGM/VvP5uR0mHad1MyxZ4ox9bsLsdNge5WdciXWIblW0C9BAgcVrhww1mvtNBc4mIODiA8ap9GqNRvyJpYWEJZfd9s7goBu1s9O1xOCNrpSOeAFoSnVmJl99dpP/nz0HIHxH7X18v8B0K0tRddTg8CBcQB6FIZdOUjJAeOp6nJoYGwMWhHDDifEDfUToGmp37XjqB+fx1amXNeAnACx++O6jggc9C7n6mXsfPZgOn/bbidAaP7ckdTj+kXOdhFgZ0hKF6RykBUXJ0B47K3XIMDHBQ4ccrOr6mAjgrOhVg4EDqwf0PYS/9YnVd3/tG1YmRI4sMqBHrdZOX4u7M45kBJ/avw+rVzzEV1uaSsIzZ877jjxSSIclm1M4CDf0YwESRVh6GU07AQIj1/+RyBcmzBt1B1X4mc2linG1E+c9jL/QjeXYhPag40ywoH2pN7vItt1wcB/uWEeUg4IHMQSISMG7ND4WEeYjflag8sOB1F09u55PZ294WHdoqYHBAArrr/tWiL6o3RjtosAM2ipjUa6NlRs2WZTzVKXo+crMbu+UmjMNOyvGLZdfhMUrupxvdHwfUxqXermhcSosymhNdSPd9XL5uCxcmCduik+MHKL7bogcND0gPOpMRZ4o7ilJnPrL43tCBwwVrGcc7exw/tsZe2R6gUEU6+kcWT+eqFjiAUIK3/1y8eoxuxjyZHYLgIuAxc4yE+6lm+dAOHxy/4FRJfEeMMgz2sKB95ODQIHrJ0oN80M15eEuKF+gmks9bt2HPWdf62QQgNGXbLdF3LgJG0F0uYAs9O+Dmje1gAfgJgFB8338H+AJqf/lLOoswABV9w+tuKo8BkCHThn1DYJmEGTygEnfunE6AoIWy+7F6DWL1eMwlVTOOjxk5HDUpjb4GGqhHZf21ZdSVEysmO7LiR22ZyTVd7UMOqsv+pRt1nD9vuH4lw5iLVv3RWXPHJdA5iLjsBBziTIgYNIKwgzv73Qb5QHCIlrBttFwDpj2zuVZuCZUGG719r2l6Hni1ozjvlOFYStb9kEBCdWGg4S6xAjZllp1FR10O/ujQIH2pmq3Ri0FnLOOJYxLBscWA6j5RiBA4MMSnGZk/M9XC3p9ki1jiamlnHHyAaEU6+++YgFi+Y/Yf+BDRfHRbq6gacN2bJNpwWf0WbBcBB5wg0QLvsuFL2Wm0TazVHrEq1A6tqVs9Lru97TJLP9zBRz0Bc4aHuA4UOBA/2p0YlVXeBA0zAjvNp1RDu22D6hWwF8rcG+1pHm2FhO0udAnhk1u5Im107p3NP5dzYgRB+FXHH9rU8SUcr7+XUHKJeBy4eX8oOZ4lsVvWLb4SHFxy/7AUA5v1qJ90gTW23otQICB9rZbAPPmhgyw6IJDmvNZwlVGQ6cN4eYc4zilpMDxnZyFFi2GELaHGDYyIQMpm6myyz0e2w56nMO0KT2YMezB+jefRDvlgkgYMWHv3AFYez2xHqlDZx2hcsQiBGhkf+MhPsOopa6nBKzL2rt9jgdDqJ/dgKExy57BkSv0EdN4EDvI42EcrlWiK12tmlb5IuwWH1iCPlcXxK2GO2nhbCrZqnvbXMQOGgBJjMOvtbgHjvMtrOWgkFUDppth9fTxHTGrxHTO2cECKd/6K8PGJu3z3NEmNPzOXl7+ihwYFM56Og4AcLWy7ZD0UHG7RsUFtwmdOYxwLDLlhO7qWap2+MjgQMtYPlcXwQOUtzd5xTjtM5RYNliCGlzgGGjzpWDZtSVQqAOpPHpF7VzLiZgBAiR3ooP3/r/CXRxq828pphBSzUhcGC40yViUSwgjHrlQJu82e4XOGj7ZgAbQ26YDNcXgYPBwQE7NAxB7R7DsFF7OGhWD+6giemfNIGDSNYYEE687stHLglmtlUCDrq5xUyyhHcZer5KWt22Uwym/FVxgCBwYDrJkmkjlQOWDzNTjTHvcqtZhvodW87rRaxTAysrZ3m6oMoB27UMwUrDgcMhJX46Z7ixKT5/5kBatu4F1rxzqSC03onQeJkULUhvjNvjNG15ING1ctDRLwYQ6g4HrpO6+ZIS0znaJ9+OgfU04wGmpoTiMPWZHS8MDixjKHAQpxuH+DP9L3CQs04YrgGkHqKVUyfZLDzGFYSokeUfvPmqYP68m5INMid/ak8HCAfOk50xziFVDooDBIED5+cOBA54a5TAgb/NIWFJKge8JEzncvc1gAlImZ00hAOH6kGkagUIR1xz+z6HjYUv+wOEaNAWA7d9UKzZFGOTTw0SU88rIJif+vxXEHLGzXIJSygnLEz9TswS4ob6CTuW+t0cCu1Trmkj1r51V8zzaG4KuAIic85pT44Gy3vZcqBs1wrMkLBygJ2TrnlkUIHztQb32GEPNKPK4qhvvE+qJ2hiyuCdNr3dtgKEyMSya2/9y7GAfp6VPLlzWuAgf8mzW9T9AoLAgcG2lCI66nCg2UlYax5DSOCgwMpBSgwZIWGt72w7DMFcEYGD/rOCZu9QCJ47kMYfN/rlQtymNSCc9Mt/tu/ixQe/1DLGCHzqSAZ4rdDtpm1fmXq+qDXLr8xu+AOEmsKBc77EEt7pamHYlYMRgwOf869riznpslbroVcOBA6s9qiRrhw0f9n4ME1Ovd7lcGMNCFGjK6675R4imrTrgMBBEZWDDrA1ZkP7zz1334MwYnCQWAcdFvamqoN+J7gCB/rlwVflQOAgw9d9jjFKa9c1gDmPpHLgu3rUwOwPltKZ39uln4DZEk6AcMx7Pr3/gUv3e77nxUms3ggcFAkHkW13QED2i5JYCwxLqHzPHEjlIF76yE5TVngZQgIHvjeGPnsucJCzuTNC2zmsaLcEgQP/OaDUV2hy6ie0vtcIOAFCZHv59bc8EoCO53ekYnCQmdzsGZQ/oZkA3j8ZCwME1rBYQgIHmZNGrhWMqjdVrhwYzf/+hBI44O9LbUlf1wpeKpDtzjCX07mxqj0I1FIan54xHn+fgjMgnHzNXx60aGzxMwQK9J0ROCimcpDMIDdAeEv2q5a1yaoV0BwsmPodRybEDfXjAfEyqeVdB6zNvcqVg+am7pCHzr9YSWnbuDsZCiw7LCFNmozwA4le1hFbOIiSz/ybC1n7kjMgRIZXXH/LAwT6sfzNT+BgUHAQtVMIIGjnvVZA4EBL0S4Lg8uinklcsYOJtvO85zaqDAdOYNBXLmBOp96oDBsOmCWP3LEJHDRjahf/Z2li6hDOTOXIeAGE17/vxoP3XTT/aRCNpTcqcDBIOCgEELTJqhWoOBwox1NjbEVgulK7MRgvMjkNs/rEEPIFB6ljY7SfNhG7apb6XbZy1B/5ygEz4QQOcrYDhwOCQgMze0+js9c/yNn8OTJeAKFZRbjulq8T0QXJRgUOBg0H3gFBu+5pBQQOtLPRYWHIOm4ww6IJDvMkw2wsU4ypn1noMNRP2LHU9wYHBQCi8ZBcK1CMBgUOioGDyGqIv6VV9/937VJjIOANEE765dv3Xby48QyARXPt1wEOGJMiMyC25UB9m96uGLRNaQUEDrQTUuBA66K4QCLlmDnY30hpKgcCB9Huxv6TGm6LHOhRsdDvyUlHfeM3JCa8tR1Ldh5OJ2/ay/YjQ9AbIERtLb/21j8NAry/1a7AwTAqB502vQCCNue1AiWHg9jCzJgsSZFhXytk9J8ZFk1wpHLAyQnnZw4EDlqJxkxaX3DQM3WYbWflg3MOOB4QoqsFmr2QJtb+OydlTWS8AgKwOlhx3QnbidQB3U4Y+d5IuG99s9BtWmDo+UzKrDYZ3WD1te14Z0AIKfs9CFy/5bqXNeC5XPZ1avS2MHiEA2YapgJK/18auTVHmGWHJVS+n7NK5SCWNRkxZIaWtSbl2qo7HLQnP9vfqRP+ZpqY+hmTjZ8r6xkQgPEP3fxTaoxub748yWjQRsIxOLDQM6GXEYSDaHhOgPB4zs8cBQ5aUOnr1CBwwFurfAFiZeAgJXGMl0KBA17yZUg5rwE+4EA9jm3TJ9CVaDiNJUPZOyBE7ay4/gvTpLCc32HjzG6Dq4VeDeCgWEBg+jxTjKnfiZOvjcFb5cDjew4EDnhLhK8c6LFjmIfxnvraGKzjXyAcsPvE8J9UDjT5HR00eFMgKaUAUjuwgMbptKmHba3o9AoBhGXv/+zhwcJFjxCwRNcBKw81nWrtWZ7uiFYOOv4upoLA9LkvOEiEmdl+WtJ5OzkaPEyVmvyxMVgNJ0XJyE6OMMsOS6jE1wqOa4fAgcP6Gad+lzxi6vbPP29rgGX7Pf1xhoMQYfgemlz7Wf0eay9RCCA0qwjX3vQbRMHH8rtm4WiBA1a0/QOCQax8AYK3E19mOYLly7mik8ABy2GFxN9hY/eWRwZzINNRbRvWpvoUje0MABBz+xT9I7PTPg9plYGD9jwg/BWtnPp51nx0ECoMEFqQcPMGIjolvX/MJIkrCxwwQ63QmFX2X3NMPINgEKtCNgeD9gs7NQgcaJNPuzFoLcwJJGxZ5oAvOGiuy5Z9mCPM1n9ZmxE4MMigjFyydr6H+LeD79CFdvLcjZVTZ5HhU342visWED5w+2tp/sxGAEt7O2fhIYEDZnxV8xemjdAXIBjESuAgI0Yxxxi4M2e3NNxkynBqZKZv6gZq5bS+zdjBhsABj2q0gMiMQSGVAycyKxMcbMXOZ5fT+dteMJhR1qKFAkLUq9Ov+cIHxwJ8nID2x5yYSSKVA4ugtuAg+uMHEJix0i4MBkPxfnJkjiGri0oqB9roaV2sFfBfOejZDwzaTxusVA60KZBfFYn8z4yBLzjwtY54gUNflQP1LNTsWTS5/hF9QPxIFA4IUTdXXHPzP1JAl7KTRODAMLrt2RBp9IQLAAAgAElEQVTby9wBAZr3ILS7KHCQE6u6Vw4MT21eF/VOWJgbUyYgOuo7vyGvr33j7pShesTstMBBRhY2H2h8CcHsm2jlujsNNwcn8YEAwnFXf23h/vOf30ykjjLqbTNhmMmVapih6yspu+2nGGR0w36c7adh+9oYCCAIHNQbDrTTk5X4LR/6goMeOwbtS+UgxQMM/2nXAIaNzDxi6iYOlLl/wd+CnPef2MAshhKbGC9DqStpcvqr/M77kRwIIERdXXbtTacFRHfyfvrYWTCsvcoDi4rCQeRvN0C4dDuU5k2K2oXBIEG9bw4ueVPx9xxoN3WWQMambrkwe4+/wRikcpB9atVNYe0awJyHvtZhr3DomkOxzjDdkHR38/C3GxS+gybW/K0uHEX8+8AAIer88mtuendA9BkQMj4L3R6iM7kxIuIrKbtRKUfloNOdQgFBuzAYpKr3zYER+7zuVfmZA9aax/SfrxzwNQ+7dpj9z80BVxttfWszfYrGdnIUWLYYQtr4M2z4rBz02GK2nQmHrImSk0He4GAX5oXvoBVr7jBYUb2KDhQQop6vuObmPwTh2uarmNP+jBwcZCQjK0dZQileSr9W6AhGVkOnXzHkVBC0C4NBfgoc9DnLFjLjkeetW+lSzHzMFGPq53bX0IbPjaFpy6L9HmcKHBhdl5ZuDXCFg7a+Uxq135IIupJWTv2TwYrqXXTggBCNYPm1X/hSQCr53WqBA0aA9XAQGSkEEHxtDKlz0HJGddUs9bseD43WtWSgXE8NAgdWAfAWf4EDlv+1BwSDeShwkH74g3oBC2Z/nE5ffx9jQyhUZCiA0IKEm+4MiM7sjk7ggBFoHhwUAggCB7yjucH6OGdQ4IC1OfVHoMdtVo6PhcBRX36twHvuq6zVI+f9x1PlAOpJqJlzaHLDVsaGULjI0AABV6xesPw1x64NiE5qzS2XCcrQTRVh6KWGIEOPZY4llE6WkSpzL/FaQag0HLh+mVEqB0arlK95WGU4MF4Oc9YU1nLDECq0cmA84FbK+aoeOe8/3uBgLfbuOJfOfvglozlVoPDwACF6HuE9n16MpYs3kMKx9mO0TW6G3ojCgfcKgi9AKFtJ0fmzzaMOB8yFubD4M9uvU+XA2CUCB/Z7h49fy3mAA1LRh5c+R5NrCv+2gqmvhgoIUWdf93OfXbrv/gvXEaljTDvPqjr4OrH0ImtvV1mswRJyrhx0DHirIBS2OVj6w9epQeCAV7UrLP7GO2HfqdFSPz7DyvZAovGQ6g4Hxg5LWbct16GuJZevMjan4G40Gm+nM4f3S4W8fXfogBB17ogrPr7PoUccsoEIx/EhgRHYmsKBtwpCYZsDI3ZpiSBw0PaKxn8s9zKECou/w8LuKwcEDvRLbamvFRxyqKvKmAO5XnKEA6jvYXdjOb1h7TP6YAxHohSA0Bz6FVeMjb/m8rsBrNS7ghHYGsNBhKVhCIevOV66HWHWi5IYvu85pfVH01C/o+5rY6hy5YDtWoagdnPQz9Lsohuj/SIBsfZwwNhctfE3iKGvtbjHjkH7qUuQg34nse1NNKDU79Hk1P9izqKhiZUHENouGL/25ttU9FrJrPckcB5m9JWQ2Ssc63aDKZQS/OxfK+hzsiXhBAiPZb0HQd96z2AS4ob6Agd9uZHjP7ZrGYLazcFgvSpbDggc6K+WtPFn5FBi7uaeGvQJVRk4UC9i9wvH0xseLW3VIB6M0gFC1Lll1934q2Mq+J1k1jATs2hAYHbDCRAyPiKob7ooQNC3nIiX183Bov3EycHTlxmtu5KiaGTLFRCYjWWKMfUzNwdDfe+AWOF3HbBdyxDMFTGYQ77WYV9w0C2cMHyQiSxtXRsTKnwXJqc/T/Ybgx6kPEuUEhCakHD1588dm0/fmhsvMyK+kjKresDshn0OzH2yObUylpsAc53zW0FgDzonXBY2vEzodpd8vULZchjs36fqFqa0f2f1iSWUk7ZMfYGDnBna50NDl2YGh22HIShwoI8fw429lVT1JTTmv5POvHuX5/27cHOlBYRo5D/2wc8cujBYNE2kXs3yRG3hIDlwf4BgOhuK+DKfRR96KpoGp57URHM4NTiDZpeS0qcAyzUsoQLhQDOGrMnd7Taz/3mLRNmuFoyHlKHAtsMQzBWJ/pFhIzPUTN3MU5Glfg+wutiwWQPUGszuupjOfPA51v5VQqFSA0LkrxXv+fR8LF78GxSo32AenmNitgmRosc2xRbsG45t5SC9PT+AYDGWhIqFjZ5FxlK/uzB4ggPLPU4qB5aOEzjQr2PsqcEQFDjwWDlQ9yPcfRmt2vh0Cfd8oy6VHhA6ozntfZ87ef7CIPqVw9Le8o32+GHkELcFnTERs06oVs8cZLfnDgg4yNBxKa6z9Ie3zaHC31dguZYlJJUDzsmD6cqkqT5FYztSOTBeh+IKTfcZOz15eNOZiF52pHALAvUrND79A6c+l0h5ZAAh8tlR7/rrRQcdQB8IguD3mj7MDJoumgZQwTbFFiy0ctAxPlBASB26pT8EDtohzPEfy7UsIX9zyFcO9NhhjiFzOjvql/X7CuxhMQQLrRxYbs6+1oBBwIFSLwHqWmDsDpq8b3uJ9nYvXRkpQOiMeMUHbnytCuizAeEiLbGz3ZQyUxjzy41O/V4rxIc6MEDwtTH0rCUsx+dEVioHrLT3Bdi+ckDgIBa2AQBipeHAdQ1pL0jpub0XwOfQCP8EG+hReu/0DGu+jaDQSAJCx8/Lrr7ptGAsvJ2ITmj9nW1SVAsOIk8MDxAsY+Dr1IC6wwFzHlQVDpwfRoz5zzKV3a4pNfFj9YkhVCgcMNpP2yx9rQG+cqAXWHcC6kaE6q+wdPfDdPKmHSO43xt3eaQBoQsK13x+PFDqk0SYAGA4purBwcAAIeG6IS8MtYcDpv8LgwNm+/3LlK/Kga+NgclY6aut7XrSsTbqlQPXHLDU77rPUX/uoDkLpf4dYfgFzMc9WLT7MTp5U1Q5qNUfw8203L5ZdvVnTwvG5r2fgHeDMKbvre1kdknC4q4V4uMtvILgbVFnLIz6QAK+3nNgvTnY5hJj/Kx0YwkV+MwBs/2i4KAZN8s+dPvU1rc2MwI5UOrKgfXka0XQOv6RIm2CUl8HqW9AzTyKYN5WGp9+mbP0VFmmUoDQCVT0/oQFNP8iUrieAjotvapgO5mtV4/WFYjnXyukJmfUjHL4FkPzVcs5v2IQOOhzu20u1RwOevYDl3nlsjn0xcC6GyOQA7WFA7UTwA8B/CcUtgJ4BKQeAfAUQD/Ajme+T+dv213ljd52bJUEhLgzlv/yTcep+Y1zxyj4GUCd3aos2E5m69VjoHAQjb8wQEi4wNInXTVL/e66Lu85YE1+/eZwA/Y2PsmyVUmhPZUcVSGDSnVVCfw3P1DYG86CwlkEs7PYuWA3zjtgB9G3ZgvxQw2MVh4Q4jE86kN/fMCB4YErKAhXEcbeAKiziLCE92yjy0Y2uMpBZ7yFAILAQcUqBz1H+NV08jf+dw3WPBmieEA8wPRArQAh4ZPVq4NTn331kcHYvOOg1JHziI5Wio4E0aug1CEg7A9gCUjNQ6jmM32a3EQy2EKPHHqJbmN9Zf9de8PjHvqL91q9sEOlXTEIHAwODnr27aysY+aGtnLQtS+AYDfBRUs8UFkP1BsQKhtWt4ElAEHgoOpwEI1PAMFt2oi2eKByHhBAqFxI3QfUAwgCB3WAAwEE92kjFsQDlfOAAELlQuo+oC4glA0ORv49B5q7A+2tgVagFXz+tUI8WaSC4D51xIJ4oFIeEECoVDj9DKYJCGH/zxyZm1NaF5qqDvpNm6P+hsRSw4FUEPxMHbEiHqiUBwQQKhVOP4NRWy6NPjoS+5qjw+buBQ6Uw0tQ+jZmq6HY/iw2Ho+chrV90gq4VA46nZQKgp/pI1bEA5XxgABCZULpbyC9gMDcnAqrHNQdDpjVF7trBbli8DdtxJJ4oHIeEECoXEjdBzQHCAIHCW8au8SlcjAwOJArBvdpIxbEA5XzgABC5ULqPqAWIKjYFYOhzVJcK8Q2V+NNPWNjNrYzMnAggGCY4iIuHqiDBwQQ6hBlwzGqLW/uewbBwIDAQdtZIwQHUVcVVtMp8iZFg0wXUfFA5T0ggFD5EJsP0BoQBA5GDw46xRIBBPOJIhrigYp7QACh4gG2GZ4xIHQPy8Y1+L7uuT6Q6HqtkHK1YDykEaocxIcrgGAzVURHPFBpDwggVDq8doMzAoTSwEFsYzbe1Dt+6lM0sqMRZtliCLn/WmEuKeK2BBDsJotoiQcq7AEBhAoH13ZobECoMhykFBOy/TnicNAaqzyDYDthRE88UFEPCCBUNLAuw2IBQhnhwGhTj3soZYNnHOZbFioAB9EYlFpNp3xLPvfsMnFEVzxQMQ8IIFQsoD6GowWEMsIBe0Pv95ALHGgAgdUnhlBR1wpxwFHhbyNc+Nvm+fOUuYpolMsDp254mUhHuuXqsvRmMB4QQBiMn0eqFR4gMDY23ahVqJPI+fcCnjlgFAR6OzSiDyR2B2EZQ1+AqCzb7++/k5mCnjth94khqAVEho3M3FZAsPsEWrZui8NkFNWKekAAoaKBdRlWLiA01yLmgpTXCYEDfYi0G4PeRDYLWMZQ4KDt0rJcLTHjmCrW/ksBBIOJVC9RAYR6xZs12kxAEDjQbw6s9ZohJHCgrx4x3JhtxKVykAPJ7D4xBLU5wLCRVznoOEcAgbUu1lFIAKGOUdeMORUQfJ0cR/6zzcM+OTI3hU6M806OJrnfY8ewD/3tDP1qIaX/RkPKEWbZYQj5ggMBBJMsF9k+DwggSEokPJAABIEDT5UD5vVM5ubA2Fji0RQ4SJndAgeJK0KpIMgukOEBAQRJjXxAEDioNxz0MI0hoEjloM8DDP8NsnIgVwyy+ms8IIAgKZINCAIHJYEDZuUht3rA2JzS5oKvHKj9tQIjhr7gwLQCJRUE2QWkgiA5wPVA84pBof25Z8uNpdtY6Pijh1j7Vl0ZdkmZsTFoRQwHnhA31O/ETuBgcIA4LDiIRiiAwF0aaycnFYTahVw/YPVI53PPlhtLaeAgZec1GpJGmGWLIaTdHPQxa0r4euZArhViDs8JDiO0LUMueRTpMhsyrRx0RimAwJxg9RMTQKhfzLUjbgGCalcQtOIZAsOuHAgcsDeW/ghK5aAklYOoG8yXidnCgVQQbBe4WugJINQizGaDVI+8aTvQuWIw021JlxAOGAe5uZG6nPg6VhinPqkc5CRX2zkMN6YbGYGrJe3YBgAHAgg2C1xtdAQQahNq/kDdAGHU4UBDEtpFnUkiAgcFwkGB1SNW/Bk5oLXDhIPUprTGe30vVwz8xbFmkgIINQs4Z7j2gCBwwCrrCxwUCAfDrhwwN+dcsQHCgVQQOEtibWUEEGob+uyBWwPCUL+vkLHiMtfrljdcHkhjNiRwIHBQGBwwKhdp3pcKguwCGR4QQJDUSHjAHBAU4PQ799iKydxnezs9bDhgLswCByWGg5wYsnKSJaQpMLlUDpg52B+BqNuzu0+gVfI1R9kKkh4QQJCscAQEgQO5VmBujplzrQBANO6SC2QyGytb5aDTHwEE2QWkgiA5wPUAv4LgCgexUw9zjZXKQdoRkBvZmFzX31aOnzPkVDnqO/VadcX1mYMaVw46URRAsJhA9VCRCkI94mw0Sh4gCBxI5cBqR0+jFJYrk0kscGDluB63KWB2j1wxGK2Q9REWQKhPrNkj1QNCCeHAeK9yeSCRed/r65mD1OaMB9yKv1QO0gElPjvYrmUIlvVaIZ4MAgjstbFuggIIdYs4Y7z5gCBwwD61ZW4OjI0ld8My1O/YEjgQOOh6IJZDAgiMVbGeIgII9Yx77qizAWHYcJBylDbeKwdQOcgtMBh2OCFuqF86OIg5x2oow75W8FE9GtKvFdLgIPo7AQTZBTI8IIAgqZHwQDoglBAOmGv13AAFDpzS3fmBxBrAgRZ6hgAHuqslAQSnaVFlZQGEKkfXcmxJQBA4kGsF7c7HyLa2DStTI1A50I4rEtAKtfyYKsbU7Y+E7mpJAIGRu/UUEUCoZ9wNrhg8woHxiT9RH2cVA5KDG0DlQB5I1MwkFzhISRzjvTJDgW1HI6i1U1I4kCsG2QFyPCCAIOmRc8UgcMA68Qkc1BsOtOBbYjgQQJAdQABBcsDEA90rBqdvK/StmtoTVloPXcvKda8caHeu/LQY+jMHBVYO2K5hJK4WEBk2fF4r9DTHaFuuGEyWx1rJSgWhVuHmDbYJCCo8iCedJRVbmBhrFOtawMiOwAGr+pEZPiNnZ1gp6bWCwEFvvAQQ3Ja6CmsLIFQ4uLZDU4+8cTuUcgAEgQMj3yf2YsvN2fTkKHCQEyZGDEa9ctAZvQCC0XStk7AAQp2izRyrevjHtwOwBASBA6abW2Jlg4NmnxibY+4gpXLArt6kutrC/y5wKIBgNGXrJCyAUKdoM8dqDwgCB0wXFwQHFhtLf4ed4MA1/inEZDykMlwtMTtdBjiIXC6AYDRt6yQsgFCnaDPHagcIrptDymrJXGczdtu50bLsMIS0JWWmgwupHDD6r+uewIHOQ5rCQBQDZhzKAgcCCPqY11hCAKHGwc8aujkg1AAOUjf1jgeZm0KmuKF+wo6lfjwBnOAg5hzrrvQpGtvxVTmIHEEvg/ASwvA5QG0A8F2AdmKMFiIMD0cYnALC4QD2BbAUIGqBAbPTZYIDAQTZAXI8IIAg6ZHwgBkglBgOcjd1w809c+1nbgoCBzkzbehwEL3w4yUA38L82Y/Sj923nrssqO+cciCWLlmNkK4C1IEtWOAPVVv9yqT4HrrjdjddTq4Y3PxXYW0BhAoH13ZofEBoL+yGe+Rcvwq8VhgJOGB1MhnGrtusHR8LgasNzzlg3B2XykGzbPIMMHsVLbv3X23nS5f9Ni87HDsXfRukjgYoSJJ3WgvGA+4rVFjo97NFY88JtGrdFtfxi371PCCAUL2YOo+IBwieNwbjvVKzMGrXTa2A5nDH1M+sHBgPuK8/hu2n7k2uNjzngHF3HOCA1G4oXE7L7nQGg37XqqkV+yOY/1jrl0CxikKiu8YD9psDzeYV0NgrgOC8albTgABCNePqNCo9IMi1gpGDvd85W24sPSdHVxslhQPtsJQCqdtx2l0/TcR9aMAo2l1htXbyfVB0Q7OaUFY4iHorgGAX4BpoCSDUIMimQ8wHBFc4yDg5axf2/rpoxqhYdhhCuSIM/dzuGuonqhCW+l07jvqd3c7JTJ+ykS2HyoFSb6bld/6T6ZywlVd3nXwQFi59AqDFvTaMBpxSzbLQzwJEAQTb8FZeTwCh8iE2H2A2IAgcsJ9UT2zqmX/BC1DX9R43Bl7LfVKulYMUQDQakgMcBOr1dNqdD1sN20FJPXjSAuze/wkAr0zZ6XmWe4Zt5LCk/f5frAgg8GJQQykBhBoGXTfkdEAQOBA4GGE4CBvH04q7H9XlflH/rrYctxA/OmQroF5l3EaRcBB1RgDBOCR1URBAqEukDcaZBASBA4GDAnLA+CCcoaC1s2cZLbt/ncEUKERU/cfrlmLRgdtABq8xLxoOBBAKiXVVjAogVCWSHsfRCwgFbAwpVeb87juUlZuGtTsI4w15Bg5ONMdoP828r2uFpgss+9DvP2szLs8c5MRQ159w9t204p7PGUSvUFF114pTsHDeGoDmaRsaBBwIIGjDUGcBAYQ6Rz9j7KmAoFuIM/2YomhkS+DAOUXrCgdQ6/GVO5fTaoTOPvRoQE1P/gFA1+eaHBQcCCB4jGz1TAkgVC+mziOaAwTXO+cawUEqxxiR0FzcpHIQy2Hba4Xobn3XITQ+/azzhPBsQN2OMRy76iEAx6eaHiQcCCB4jm61zAkgVCueXkbTAgTV+tyz5R6XqmhkSyoHzsGsbeWgeaXyu7T8zl9z9mFBBtT9429CMO9rCfODhgMBhIIiXA2zAgjViKPXUaiHL9nefAuc0YYe78IIVA5y4cdw4JV75iDmHENXpJRBWn9lbMehchC198L39qHzt+32OjE8G1NTk2tBdHrXrC84MK1Aya8YPEe2OuYEEKoTS28jaQKCMnjSuqdlgQOrQJgu6nmNOFUOKgAHCG+lZXe93SoOA1RSaybeCRXcmAQoY5rq7bVp/AUQBhj10WpKAGG04jWQ3qrN7QqCcWt1hwOro3LsdD3gjSE1vi7PnbjGP8d/bNdEu+POg2jZuheM03fACu1nEb7ffIGSL0A0hYNozAIIA4786DQngDA6sRpYT+0AwXVzGMAzB7n7N3sHasWhbNcKNhtDIqNc4CDFKYYuzbyHYNuJBFWI0++aV/R3FnxNRjU1+XcAvTUjqcyasc0BAQQzP9dIWgChRsHmDlVtvuTpudfCcrQEDjheytqPLS7o3UrK3isHZYGDZj++RMvuusIqHkNQUmvOeCdCdeNQc0AAYQiRH40mBRBGI04D7aXafEn03vgjeI0KHPD81Cfl7YE09vE6p5slrRzkVnziw4n5oNFYReP33GsVkyEoqXsnDsYYPQPAfi22rRx0xiuAMITIj0aT9kk5GuOTXlp4QG2+ZDOA1+lVBQ70PkqRqDIcsDf1jl98Xi2pkJbdNWYVkyEqqamJ7wNk/o2Gpq89AKIAwhCjX+6mBRDKHZ+h9E5tvuROAGfmNy5wYBWcKsOB8V7lEw6au+UMLbtrgVVchqikpifuh6Jx4y74gIPoYZrGzAm0at0W4/ZFofIeEECofIjNB6g2X/wVgC7P1hQ4MPdq/4ONxrtpb5POm0OFrhXmPLOHlt25yCo2Q1RSUxP/AtAlRl1wjn+71BOlQSiAYOT7GgkLINQo2Nyhqocu/iSI3pcuL3DA9WNCbpg/ZevpTCXhILrF302n37mPdXyGpKimJu4A6CfYzfuEg6hRAQS26+smKIBQt4gzxqseuvg6EP1hUnTU4aB9amL4oCni66eMPbakcpDpfpZrcq8ldtPyEQSE6ckvQ+EnWWnpGw4EEFhur6uQAEJdI58zbrX5oiuB4Iu9IgIH1qkilYO263w/c5CIyKheMfwjQJdq86sIOBBA0Lq9zgICCHWOfsbY1aaLViEI7p77Z4ED6zQROBgUHEQln7207K6F1rEakqKamvgOQGfnNt/MI1aJJQ/9W//Wb0auGIYU+fI3K4BQ/hgNvIdq88WHA/Rk+mpiuk5pFjXtmqcVyOxmLuBkeTW1OWYf+m0KHAwODiJfKzRoxZ3zBj5hHBtUUxOPAJT+6efuhm6Zg92+5Tx3IoDgGMHqqgsgVDe2TiNTD128HZTywSajdUrgwPnU51xWrugDifHsngMxhZ0vHUznPPC8U/IPUFkpjGF6cgeA9F9fFFk56IxTAGGAER+tpgQQRiteA+utevji5INTRnCgKYlqbWkFpHKgzYY6wUHbGUH4a3T63b+rdU1JBNS9y8/B2Pxvp3ZnEHAQNTzWOJ5WrHm0JC6RbpTIAwIIJQpGmbqiHrroahDd0F+h5PfR5YE0gQP3N+TVEA6ayam20/K7XsHP0+FKqqnJPwHwwUQvBgUHUcPzZ46mZeu2DdcT0noZPSCAUMaolKBP6qELzwAFd7XWXNMO1RAOeoZs7LBeB8u1gj7hMl2sFB69az5diYbeyPAl1NTkBgCn9PRkkHAQNRzueQ2t2vC94XtDelA2DwgglC0iJemPeuqSJXghfAGKDB/6EjhwCmHZ4MAYEF3iz2wsl78UEM5eSeP3/Y1THAagrO45/XjMW/AwQHPr8KDhIBrnnt0HjdJzGwMIjTTR9oAAgqRCpgfUQxfxfp/dtTDMzcHw1O7r1wplrBww99lk4FOcYuTWYca/M+ioD2ov/v6efWg1wjJPb3X/xN+A6Kd6p4+Rw1OGp8wqfgoNTNy/gKjcvipzHKvcNwGEKkfXcWxq84U/BRUwTmKuv1Zg7mjZZWWzkQocpG8s/X9rtFeVBQ7agxibOYVOm9polhiDk1abX7cUOw54GkDr1dC+KgdGMWu2/DhN3H/s4EYuLY2SBwQQRilaA+6rWnfGq7FwyRM9JdBEH2oKBz1MY74q97hRrhX0ma27Vkg+KLMbj969b1mfRVBTE38H0FuHDAcAqS/Ryqkr9AEQiTp6QAChjlE3GLN66KJvAnReusqw4YBZeYh3PtFly829q2ap3+lT7eGAEUNzOGh5N2z8Txq/7y8N0n0gouquU07Bgn3WN8F7eJWD9ljDD9PEdMp3VwbiCmmk5B4QQCh5gIbdPbX5wjdCBf+U7IfAgdllb0okBQ70P5GxhYOOu3ftPJTO2vDDYc+jGA8Spie+C9Brhg8HkfsbF9Lkmm+UxT/Sj3J5QAChXPEoXW/U+kuWYEH4UvKaYQB3zrmHS8OTe9kqB82xGY4hkR1tfWszfYrGdgaQA7l94jyDqHbhqWcPpDc/uqcMk0tNTX4DUOf5qR64xl9+4liGnChzHwQQyhydkvRNPXjBagRjvznXHdfqAXMnKuyhRGb7/f73da0gcKCvHOTCYfP+gD87FDZi+d2nDftJfTU18ecAfrE0cKDCbTQ5fTTfkSJZNw8IINQt4hbjVZsuOBI01n7T2qjDgXbnSfeQwEHMLxk5wOYuhqDr1UK3pt/9j//AY/ecN6yHFtXUyj8A0bVQFLhfLXioHESdCNVHadX0/7FYEkSlJh4QQKhJoF2HqTZfdDMU3pFrR7vuawVa5gurHAgcJJzLDIm2esS2wxD0BQf94VZ4EC/9YJzO37bbdT6Y6Kv7V96KgK70AwftQTHcmN3HtvLszHI6c/1ak7GIbL08IIBQr3hbj1ZtueBYzAbpH3RhLVYsIYEDDoExXZk0VdAzB+z+MASLgoMueapngZkzBvFxIgUQpiaidzGc6OdawSMckHoRO6ZfQedj1npREMXKe0AAofIh9jdAtfmiz0PhZ3osMtZ89tP+pa0cWFYe4o6q6gOJrPgz/VcoHL8HQGIAAAxQSURBVMT7oPYC9Gf4h3uuL+pti2p68ioo/BmA/eaqYmxnZUxaw7ckJqzE2g/Da2jVmuhDUfJHPJDpAQEESQ62B9Sasw7HPvs82VVgrXcsoRJXDpibW54XqwoHbNcwcsAXHJhAplJPI8RHaeLev2BPAo2gml6+Cmr+TYA6tvvLn2afGD7QVY+cTPQr734tTWx8wte4xU41PSCAUM24FjYq9dBF1wP4A/56x1jVTBb13I047R8Z7fer9ahY6Je5cmC8V+WMn+UahtAw4KA3Rk8hUHdgdsfHaGLTU6aTR01hPjBxLUC/AOC4Hv1SwgFuo4mpnzYdp8jXzwMCCPWLudOI1RNn7IMdS56CapdOdaceXWsCBzkeajuHscemG0lRNLJVAzjoddwsoP4TITaD6F+Amf/Awds30dFzDzWq2zGGo8ePAwWrAFwC4HQAUbVgYSIGZYSDqE8ze19PZ294WDc15d/FAwIIkgPGHlAPnDeOsXn35ysydiKBA4GDTA9EycHIodyKCFO/p5rQ/z+i+yHaE71yEKAApBY2f42g+1NWOCB8mSam5r4gqRuH/HutPSCAUOvw2w1eKRA2XfgpEL2HfXLtF9SWlZl9S7VjsTH0bDSW+p0ul+2Zg9xNNM3PrpUDRoPa+DNj4AsyE11mtp/pPgf9pk2PDyTGx0by7AFzZRExRD/DkT/iAQsPqK3nLcKuedEDiwf1qjMWRu3mwOyQwEGKo4Z9rTBsOGDkn5aJLG00h+6g2+1XQXCg1G/SqumPMWeXiIkHBBAkB+w9oB487zjQvC1zFhiLY2FwwGg7a6hdVQcbXjaHdvvW3Rg2HDA6ro0/w0YmgzB1+/OgR83SRrdPDvqdygGDsbJnbV/7c//zOYyp19D49Mv2M1406+YBqSDULeKex6seOv/tUMEXWGa1mwPLSsrVtMOiLHDQdnqOD1nuZQhp48+wIXCQM0ky4QBAYyVNrp1izjAREw80PSCAIIng7AG16YL/B+C9yS8+xkxrNwdmN+RaIcVRo145iIbE/PhSIfF3OrK3gZUJN5lp7rl61NOd8Pdpcs1HmDNMxMQDXQ8IIEgyOHug+dDiQxfeCeCMVGMCB/pTn/X+UiM4SN3HLR1Xj2uF6KGITRjD6TQ+PeM80cVA7TwggFC7kBcz4PYvGx4F4ZieFgQOBgcHxnvlAK4VtIdzZuVA4CAjj/KuFbALL88eTueve6GYWS9Wq+4BAYSqR3iA41Nbj1qEXcc8BtDhzWYFDgQOcnPABQ60CZbu+9pUDqAwM3MKnb3+wQEuAdJUxTwggFCxgA57OGrqov2xONwE1YYE8zuHXo1C7pyNj9p9fXLU75CTtZncUyMjBUa9ciBwkP/Z7ui3lupymlzzj4xkEBHxQKYHBBAkObx7QG2Z3A97l2wA6MikcYNdUeAgJTauzxzkbK6s0LCENNUjqRzoK2x50zIPEFUIpX6JVq3x9gEq7wuEGBwZDwggjEyoRqujzW82/Ghx9LOqk+Z6ztxcMvcwA/24u7pqlvodW84vwYm1b9UVgQP265dT429ZeejG31E/TgVW8U9pv9dOA6SupYnpG0ZrtZDeltUDAghljUwF+tX8sM3JF/wrgPOMflJb5cqB9R4zAnCg3fSkclBc5QCzIPUBmpiOfnIsf8QDXjwggODFjWIktyC68fwbQXQVAOZHbvqtaXee9OalchDzS4YP2a7VCGrtCBwUBwdqD1R4Fa1a+yVZicQDPj0ggODTm2Ir0wNq07kfhhqL3gO/KNdNiY1Gu/MIHGjzTuBA66IsgabrLHOwa7Otb20m75kDPIfZ2QvprHXrrMcoiuKBDA8IIEhqDMwD6sFzJoB5XwHosNRGKwcHsc3FanMY9rUCY3PUjksqBwVVDiLPb4J64Uxa9eiPBjaJpaFaeUAAoVbhHv5g1TePWoRDj/4HKFzY82pmgYO+4AgcWJ3ce9ympZf8CeHroVTrbmRWDhpA+GWaXPO24c9o6UGVPSCAUOXolnhsauO514CaVw77Jiu4litqaZ45kMpBa3NnxtHXQ6n1gIMfQTXeT6vW3lTi6S1dq4gHBBAqEshRHIZ6YPJQ0OJ/BnDaXDWBuan0D1jgIOaRYT9zUHc4aAOiZSqnvwRJKSisAV68QK4URnG1G80+CyCMZtwq1Wu14bz3IqA/bFYTbP5UBg5S7vyNNpkcYbYdhmCuSN3hoIgHEtVOhPh1OkPeb2CzPIiOvQcEEOx9J5oePaC+dtxCHPmaL0LhUgDz2KZLAwexXZOxx6aPL/POmeEOTaOsPjGEBA5yYuEdDqIXH30HB774Rjr+0T2MJBAR8YBXDwggeHWnGHP1gFr/hqMRBP/a+iok5eenwEHb3QIH7OcdshK0VA8kRp2hpzE782Y6c/1a1zkl+uIBWw8IINh6TvQK9YBaf+45COiroOjaIQUUBA5i/ne9WpDKgVsyu1YOuldL0XMGe6Aa76ZVa29z65NoiwfcPSCA4O5DsVCgB9QD51wKjN0Biq4d2qDgCw6a6zJjc8wc37CvFbobC+vGwlpIrhUKvFZox5BUiFlcI88ZFLiYiGljDwggGLtMFAbtAaVAePDc84Dgn6GwYK59l83dFQ5im7N1N1IUjWyNUOUgk2WMBtwKfY+KhX4ngZqqDvqdzriYiMBAzV6Nles+RQSDt0oNehZKe3X0gABCHaM+omNWCgE2nfN6hGPfAHCo0zCcKgcCB0bvORA4SElV9TJCvB27pr5K52PWKZdFWTxQkAcEEApyrJgtzgPNisLGyVeCFn4aKnircUu1hwPGydnXtYLAQV96qgfQ2P02rNr4CBEaxrkrCuKBAXpAAGGAzpam/HtAbZncDy8v/AkE9BmAYtcPGW0JHOjL6gIHmkRVpjcTCkH4fwHcgPHp7WSq7X/aiEXxAMsDAggsN4lQ2T2gbscYTnzD4QB9FMDPAZT8tLTAQb3hoFnNcHlgwPRqSf0bQB/Cs88/Sm+W9xiUfQ2R/iU9IIAgWVE5D6gHz9sXCI9HSB8D4c1QFAx2Y0hz6bAfSHS9Voj0DZ6hS92HLTZnXw8kDgQOmu8vmIZqfAR7Z9bSOQ88X7nJJQOqlQcEEGoV7voNVq097wAsmH0dGnQdEPw3o7c0dt3l+jt3gQOrqvoowEH0KwTg2wD9FsZm19Pytc/Ub5bJiKvqAQGEqkZWxpXwQLOyoGaPhaIroegXATpI7yZXOEg5uRsdpF1/yiiVA+/VI4WXEKjPYWbmZjTCLVIp0M8ikRhNDwggjGbcpNeOHlCrEeAnzz4KoFMBeheANyUfcqwBHGj5Qa4VALUXwD9DhbcgDNdgct3j8gsExwko6iPhAQGEkQiTdLJoD6hvHrUIr3z1sQiDZVB4K0BvbH5d0ui039/LPmUjWwOoHAgcZKSV2gmorwG4A6Q24uDtW+jobbuLzkGxLx4omwcEEMoWEelPKTygvnnePBw2ewz24nVQOBMBRQ87nsrvnAsc5OzcbMhgCOaK1KVyoGZBNAUVfh2kvo09eAx7p78rLy/iZ7pIVtcDAgjVja2MzLMH1OazlmKXOhZq7DiMYRLAOQCWAzS/tymBA2PX+3ogMe/1yYRnoXAflLoHpDag0diC5156TH6CaBwtUaiJBwQQahJoGWYxHmi+/nnq7KOwEMdA0VFQ4akYC5YhVKcDZHFFkXGsZxQE2L8UqGrloAUH0f/dCqiNaGADgsZGhPgusHcrrdr4dDFZIFbFA9X0gABCNeMqoyqBB9T6M1+JBr0WAb0GSh0J0PEgHAvQsUDzf+dXHjpjEDiIRbP5s8IfAvQYoB5t/r8g+C5CfA97Z57A/rv/k07eFD1UKH/EA+IBRw8IIDg6UNTFAzYeaL758bizDkUQHoogOAyhOgwhHQpSh4HoMACvhsKrABwC0H76NhgUUdbKQfOLhvQiED4D0DOA+iFCPAXCkyA8DRX+EMBT2K2ewkG7nhIA0GeDSIgHfHhAAMGHF8WGeKBAD6jbT1qAo5YchHnBQSA6EBjbH4HaD0rtDxXsB4WlIOwLqH0BWtL8/5VaDKJFABaBsAgh9mlXLOZDqQUgzAMQVTCiTwNE/x3dUAQgjLX/exbU/A2HgkKj/d8zUJiFUjMAZkC0t/kTQIXdoHAXQNGT/rtA2IVQ7YSiHSC1A1A7QMEOEH6EBn6EeXgRs40XAbyIscZzeHHt8/JQYIEJJKbFA5Ye+C/yTsmxFN7KIwAAAABJRU5ErkJggg==;" vertex="1" parent="1">
          <mxGeometry x="400" y="159.87" width="70" height="70" as="geometry" />
        </mxCell>
      </root>
    </mxGraphModel>
  </diagram>
</mxfile>
